<?xml version="1.0" encoding="UTF-8" standalone="no"?>
<!DOCTYPE svg  PUBLIC '-//W3C//DTD SVG 1.1//EN'  'http://www.w3.org/Graphics/SVG/1.1/DTD/svg11.dtd'>
<svg version="1.1" xmlns="http://www.w3.org/2000/svg">
<defs>
<font id="PFDinTextCompPro-BoldItalic" horiz-adv-x="430">
<font-face cap-height="696" underline-thickness="90" font-family="PF Din Text Comp Pro" underline-position="-295" panose-1="2 0 8 6 0 0 0 9 0 4" units-per-em="1000" slope="-12" unicode-range="U+0020-FB05" font-weight="700" font-style="italic" ascent="800" bbox="-96 -210 876 918" descent="-200" x-height="494"/>
<missing-glyph/>
<glyph glyph-name="space" unicode=" " horiz-adv-x="215"/>
<glyph glyph-name="exclam" d="M34 0l27 139h128l-27 -139h-128zM193 203h-113l86 493h133z" unicode="!" horiz-adv-x="275"/>
<glyph glyph-name="quotedbl" d="M91 477l43 219h92l-43 -219h-92zM231 477l43 219h93l-43 -219h-93z" unicode='&quot;' horiz-adv-x="310"/>
<glyph glyph-name="numbersign" d="M188 302h70l39 102h-71zM22 302h68q10 26 20 51t20 51h-52l18 95h67l73 196h98l-74 -196h70q19 49 37 98.5t37 97.5h98l-75 -196h54l-18 -95h-70q-9 -26 -18.5 -51t-18.5 -51h53l-18 -95h-71q-20 -52 -39 -103.5t-37 -103.5h-97l76 207h-71q-39 -104 -75 -207h-98l77 207 h-52z" unicode="#"/>
<glyph glyph-name="dollar" d="M231 481q0 -10 3.5 -18.5t13.5 -16.5l23 118q-12 -5 -19.5 -15t-12 -22t-6.5 -24.5t-2 -21.5zM267 241q0 20 -16 35l-28 -144q13 6 21.5 18t13.5 27t7 31.5t2 32.5zM169 191q-5 -17 -5 -30q0 -12 4.5 -20.5t17.5 -11.5l32 165l-4 2q-36 17 -59.5 34.5t-37.5 36 t-19.5 38.5t-5.5 42q0 54 13 100t38.5 79.5t64.5 53.5t90 22l13 67h36l-14 -68q36 -3 61 -14.5t40.5 -29t22.5 -40t7 -46.5q0 -32 -9 -63l-135 -8q2 8 3 16t1 16q0 11 -3.5 19t-13.5 12l-27 -137q67 -28 95.5 -61.5t28.5 -81.5q0 -56 -10 -107.5t-34 -90.5t-64 -63.5 t-100 -26.5l-15 -78h-36l15 78q-71 5 -103 42.5t-32 90.5q0 24 6 51z" unicode="$"/>
<glyph glyph-name="percent" d="M165 -17h-81l456 731h81zM272 375q-10 -52 -40 -75t-78 -23q-24 0 -44 8t-33.5 22t-18.5 30q-4 17 -4 29q0 11 2 22l41 213q9 46 40 72t78 26q49 0 75 -26t26 -62q0 -12 -3 -26zM220 595q1 5 -2.5 11t-12.5 6t-13 -6t-5 -11l-43 -214q-1 -5 4 -10.5t14 -5.5q7 0 11 5.5 t5 10.5zM616 92q-10 -52 -40 -75t-78 -23q-24 0 -44 8t-33.5 22t-18 30t-4.5 28q0 11 2 23l41 213q9 46 40 72t78 26q49 0 75 -26t26 -62q0 -12 -3 -26zM564 312q1 5 -2.5 11t-12.5 6t-13 -6t-5 -11l-43 -214q-1 -5 4 -10.5t14 -5.5q7 0 11 5.5t5 10.5z" unicode="%" horiz-adv-x="657"/>
<glyph glyph-name="ampersand" d="M205 265q-42 -47 -42 -100q0 -22 9.5 -36.5t28.5 -14.5q14 0 29 5t26 14zM313 701q58 0 98 -26.5t57 -83.5l-108 -56q-4 25 -18 36.5t-28 11.5q-12 0 -20.5 -6t-14 -15.5t-8.5 -21t-3 -24.5q0 -9 3.5 -31.5t14.5 -54.5l60 -172q5 13 12 35t9 37h115q-10 -48 -31.5 -99.5 t-49.5 -89.5l52 -141h-145l-14 35q-34 -24 -67.5 -32.5t-66.5 -8.5q-63 0 -96.5 39.5t-33.5 106.5q0 40 10 73t27.5 60.5t42 52t54.5 48.5q-14 39 -21.5 71t-7.5 67q0 43 13.5 77.5t37.5 59.5t56.5 38.5t70.5 13.5z" unicode="&amp;" horiz-adv-x="499"/>
<glyph glyph-name="quotesingle" d="M109 477l43 219h92l-43 -219h-92z" unicode="&apos;" horiz-adv-x="200"/>
<glyph glyph-name="parenleft" d="M372 683q-89 -122 -138.5 -247t-49.5 -264q0 -65 10 -125.5t30 -112.5l-82 -48q-35 69 -56.5 144t-21.5 159q0 75 18.5 149t50.5 142.5t73.5 130.5t88.5 113z" unicode="(" horiz-adv-x="296"/>
<glyph glyph-name="parenright" d="M241 724q30 -63 50 -136t20 -157q0 -78 -18 -151.5t-50.5 -141.5t-77 -131.5t-97.5 -120.5l-62 48q40 54 73.5 114t58 123.5t38.5 129.5t14 134q0 64 -10.5 127.5t-31.5 120.5z" unicode=")" horiz-adv-x="296"/>
<glyph glyph-name="asterisk" d="M368 404l-81 -50l-42 105l-86 -106l-61 51l97 98l-107 31l44 82l100 -45l14 125h89l-36 -124l117 44l14 -82l-123 -31z" unicode="*" horiz-adv-x="394"/>
<glyph glyph-name="plus" d="M275 243l-30 -151h-109l30 151h-140l21 111h140l30 151h109l-30 -151h140l-21 -111h-140z" unicode="+"/>
<glyph glyph-name="comma" d="M53 -153h-76l62 149h-29l30 154h136l-30 -151z" unicode="," horiz-adv-x="234"/>
<glyph glyph-name="hyphen" d="M50 216l24 120h296l-24 -120h-296z" unicode="-" horiz-adv-x="383"/>
<glyph glyph-name="period" d="M7 0l29 150h135l-29 -150h-135z" unicode="." horiz-adv-x="229"/>
<glyph glyph-name="slash" d="M52 -42h-100l335 767h101z" unicode="/" horiz-adv-x="289"/>
<glyph glyph-name="zero" d="M286 569q-16 0 -23 -8.5t-9 -21.5l-76 -382q-3 -14 5.5 -22t19.5 -8q13 0 22 7.5t11 19.5q19 97 32 163.5t21.5 109t13.5 65.5t7 33.5t2.5 12t0.5 2.5q2 16 -7.5 22.5t-19.5 6.5zM300 702q39 0 69 -14.5t49 -40t23.5 -50t4.5 -40.5q0 -21 -5 -45l-75 -365 q-14 -75 -58.5 -114t-113.5 -39q-38 0 -68 13t-49 37.5t-24 50t-5 42.5q0 20 4 43l69 366q14 75 62 115.5t117 40.5z" unicode="0"/>
<glyph glyph-name="one" d="M154 0l104 537l-105 -71l29 149l120 81h120l-135 -696h-133z" unicode="1"/>
<glyph glyph-name="two" d="M15 0l23 120l232 317q20 26 29.5 53.5t9.5 48.5q0 13 -6 23.5t-20 10.5q-12 0 -28 -16t-23 -65l-129 16q8 51 27 88t45.5 60.5t59 34.5t67.5 11q78 0 112.5 -36t34.5 -100q0 -29 -4.5 -53t-14.5 -46.5t-24.5 -46t-33.5 -50.5l-172 -239h160l-26 -131h-319z" unicode="2"/>
<glyph glyph-name="three" d="M349 358q15 -8 23 -20t12 -26t4 -29.5t-3 -30.5l-12 -69q-8 -43 -23 -78t-38.5 -59.5t-57.5 -38t-80 -13.5q-88 0 -120.5 39.5t-32.5 90.5q0 29 8 65l138 16q-8 -25 -8 -41q0 -17 5.5 -26.5t13 -12t13.5 -2.5q11 0 23 8.5t17 35.5l16 83q2 9 2 16q0 16 -11.5 26.5 t-31.5 10.5h-30l22 114h38q20 0 36.5 11t21.5 37l13 66q3 14 -2.5 27.5t-25.5 13.5q-7 0 -15 -2.5t-15.5 -11t-14 -24.5t-9.5 -43l-129 16q14 97 66.5 146t126.5 49q49 0 80 -15.5t48.5 -39.5t21 -46.5t3.5 -38.5q0 -14 -2 -27l-5 -35q-4 -19 -10 -39t-15.5 -38.5t-24 -34 t-35.5 -25.5z" unicode="3"/>
<glyph glyph-name="four" d="M336 98l-19 -98h-131l19 98h-196l21 111l234 487h132l-223 -470h56l27 136h131l-27 -136h39l-24 -128h-39z" unicode="4"/>
<glyph glyph-name="five" d="M383 183q-6 -39 -19 -73.5t-36 -60t-56.5 -40.5t-81.5 -15q-42 0 -73 14.5t-50 40.5t-22.5 50.5t-3.5 37.5q0 25 6 52l132 16q-8 -27 -8.5 -43t3.5 -24.5t10.5 -11t12.5 -2.5q11 0 23 8t17 35l29 149q1 4 1 8q0 20 -24 20q-8 0 -22 -6.5t-28 -29.5h-111l76 388h311 l-25 -127h-185l-24 -126l2 -1q14 12 35 18t35 6q67 0 84.5 -32t17.5 -68q0 -17 -3 -36z" unicode="5"/>
<glyph glyph-name="six" d="M239 309q-11 0 -21 -7t-13 -21l-25 -131q0 -2 -0.5 -3t-0.5 -2q0 -11 8.5 -16.5t18.5 -5.5q11 0 20.5 7t11.5 20l25 131q1 2 1 7q0 11 -7.5 16t-17.5 5zM282 404q16 8 39 8q12 0 26 -3.5t25 -14t18.5 -30t7.5 -51.5q0 -24 -4 -50.5t-9 -51.5q-8 -37 -19.5 -75.5t-33 -70 t-57 -51.5t-91.5 -20q-29 0 -54.5 7.5t-44.5 22.5t-29.5 38t-10.5 54q0 12 2.5 39t9.5 61t18.5 70t28.5 67l194 343h147l-167 -288z" unicode="6"/>
<glyph glyph-name="seven" d="M170 0h-135l275 569h-63l-13 -67h-122l38 194h327l-23 -116z" unicode="7"/>
<glyph glyph-name="eight" d="M260 288q2 11 -5.5 19t-19.5 8q-14 0 -22.5 -8t-10.5 -19l-27 -140q-2 -11 6 -18.5t19 -7.5q12 0 21.5 7.5t11.5 18.5zM310 547q2 11 -4.5 19t-18.5 8q-15 0 -24 -8t-11 -19l-20 -106q-2 -11 5.5 -19t18.5 -8q12 0 22 8t12 19zM357 362q18 -10 25.5 -29t7.5 -45 q0 -20 -4.5 -42.5l-8.5 -42.5q-6 -31 -12 -54t-13 -41t-15.5 -32.5t-19.5 -26.5q-29 -34 -63 -44.5t-73 -10.5t-77 16.5t-53 50.5q-10 21 -10 49q0 6 1.5 27.5t9.5 65.5q4 19 9 42t14 44.5t24 41t39 31.5v6q-17 10 -24.5 25.5t-9 29t-1.5 21.5q0 11 2 26.5t6 34.5 q8 41 23 80.5t42 67.5q27 27 61.5 38t70.5 11q35 0 69 -12t50 -41q16 -26 17 -44t1 -22q0 -30 -9 -78q-4 -20 -9 -40.5t-14 -39.5t-23 -34t-35 -24z" unicode="8"/>
<glyph glyph-name="nine" d="M284 573q-13 0 -21.5 -8t-10.5 -21l-25 -129q0 -2 -0.5 -3.5t-0.5 -3.5q0 -11 7.5 -16t17.5 -5q11 0 21 7t13 21l24 126q3 14 -4 23t-21 9zM208 292q-16 -8 -39 -8q-12 0 -25.5 3.5t-25 14t-18.5 30t-7 51.5q0 24 3.5 50.5t8.5 51.5q8 37 19.5 75.5t33.5 70t57 51.5 t91 20q29 0 54.5 -7.5t44 -22.5t29.5 -38t11 -54q0 -12 -3 -39t-9.5 -61t-18 -70t-28.5 -67l-194 -343h-147l167 288z" unicode="9"/>
<glyph glyph-name="colon" d="M7 0l29 150h135l-29 -150h-135zM57 259l29 150h135l-29 -150h-135z" unicode=":" horiz-adv-x="229"/>
<glyph glyph-name="semicolon" d="M61 259l29 150h135l-29 -150h-135zM53 -153h-76l62 149h-29l30 154h136l-30 -151z" unicode=";" horiz-adv-x="234"/>
<glyph glyph-name="less" d="M379 66l-351 190l18 91l428 191l-30 -139l-267 -105l224 -103z" unicode="&lt;"/>
<glyph glyph-name="equal" d="M9 156l21 111h389l-21 -111h-389zM44 335l21 111h389l-21 -111h-389z" unicode="="/>
<glyph glyph-name="greater" d="M21 209l264 103l-227 105l26 121l354 -191l-18 -91l-425 -190z" unicode="&gt;"/>
<glyph glyph-name="question" d="M99 0l27 139h128l-27 -139h-128zM265 702q76 0 120.5 -38.5t44.5 -110.5q0 -33 -5 -58.5t-13.5 -45.5t-19 -36.5t-21.5 -30.5q-31 -40 -48.5 -63.5t-26.5 -38.5t-13 -26t-8 -26l-9 -37h-133l12 61q5 28 19 54t28 46q28 39 46.5 62.5t29 40.5t14.5 33t4 39q0 15 -9 27.5 t-29 12.5q-8 0 -17 -3t-17 -11t-14.5 -22.5t-8.5 -37.5l-127 13q13 106 64 151t137 45z" unicode="?" horiz-adv-x="394"/>
<glyph glyph-name="at" d="M547 270q-3 -16 -1 -26t6.5 -15t10.5 -7t11 -2q25 0 47.5 18t39.5 49t26.5 72.5t9.5 88.5q0 83 -48.5 133.5t-148.5 50.5q-81 0 -142.5 -33.5t-102.5 -88t-62 -122.5t-21 -137q0 -108 52.5 -163.5t153.5 -55.5q44 0 84.5 10t93.5 36l23 -83q-54 -23 -103 -37.5 t-101 -14.5q-68 0 -123 17t-94 52.5t-60 90.5t-21 132q0 99 30 187.5t85.5 155t135.5 105.5t179 39q73 0 127.5 -20.5t90.5 -56.5t54 -85t18 -106q0 -89 -21.5 -152t-55.5 -103.5t-75.5 -59t-81.5 -18.5q-35 0 -64 16.5t-39 45.5l-4 1q-23 -33 -51 -45.5t-48 -12.5 q-45 0 -67.5 21t-22.5 53q0 27 4.5 66t15.5 91q9 47 19.5 82t25 58.5t34 35t48.5 11.5q14 0 32.5 -7t31.5 -28l3 1l8 29h112zM403 231q8 0 17 7.5t15 35.5l23 115q1 5 2 11.5t1 12.5q0 9 -4 16t-17 7q-8 0 -14.5 -5.5t-8.5 -12.5q-3 -5 -8 -26t-10.5 -48t-9.5 -54t-4 -43 q0 -14 18 -16z" unicode="@" horiz-adv-x="811"/>
<glyph glyph-name="A" d="M240 375l-35 -111h63l8 111l13 141h-6zM263 136h-102l-47 -136h-145l267 696h166l-2 -696h-142z" unicode="A" horiz-adv-x="449"/>
<glyph glyph-name="B" d="M348 364q34 -12 46.5 -39t12.5 -62q0 -59 -15 -107.5t-43 -83t-68 -53.5t-90 -19h-180l135 696h147q162 0 162 -146q0 -77 -27.5 -121t-78.5 -60zM205 302l-35 -174h24q20 0 35 9.5t25.5 26t15.5 37.5t5 45q0 30 -14.5 43t-33.5 13h-22zM257 566l-27 -138h17 q36 0 55.5 25t19.5 68q0 28 -13 36.5t-38 8.5h-14z" unicode="B" horiz-adv-x="446"/>
<glyph glyph-name="C" d="M310 702q81 0 120 -40t39 -100q0 -22 -4 -39l-135 -23q1 5 1.5 9.5t0.5 9.5q0 23 -10 38t-28 15q-14 0 -23 -5.5t-15.5 -13.5t-10 -17.5t-4.5 -16.5l-69 -355q-1 -4 -1 -12q0 -11 6.5 -19.5t27.5 -8.5q43 0 60 72l131 -18q-6 -41 -20.5 -74.5t-38.5 -58t-58.5 -38 t-81.5 -13.5q-80 0 -121 35t-41 101q0 20 5 48l66 341q8 41 23 75t39 58t59 37t83 13z" unicode="C" horiz-adv-x="427"/>
<glyph glyph-name="D" d="M311 696q62 0 102 -21.5t45 -72.5v-18q0 -33 -6 -93t-23 -142q-17 -86 -29 -145.5t-32 -100.5q-31 -59 -76.5 -81t-98.5 -22h-181l135 696h164zM256 562l-84 -431h24q32 0 44 15t18 45q23 119 36 185.5t19 99t7.5 41t1.5 11.5q0 17 -9 25.5t-33 8.5h-24z" unicode="D" horiz-adv-x="446"/>
<glyph glyph-name="E" d="M11 0l135 696h319l-25 -130h-183l-29 -146h160l-26 -133h-160l-29 -157h183l-26 -130h-319z" unicode="E" horiz-adv-x="394"/>
<glyph glyph-name="F" d="M257 566l-29 -147h160l-26 -131h-160l-55 -288h-136l135 696h319l-25 -130h-183z" unicode="F" horiz-adv-x="394"/>
<glyph glyph-name="G" d="M204 -6q-94 0 -128 41t-34 94q0 23 5 49l66 341q8 41 23.5 75t40 58t59 37t81.5 13t79.5 -14t51.5 -38.5t23.5 -48t4.5 -39.5q0 -19 -4 -39l-135 -23q2 10 2 20q0 18 -8.5 35t-29.5 17q-14 0 -23 -5.5t-15.5 -13.5t-10 -17.5t-4.5 -16.5l-69 -355q-1 -7 -1 -14t3 -13 t10.5 -9.5t20.5 -3.5q20 0 34 10t19 33l20 102h-47l23 119h182l-43 -219q-9 -48 -27.5 -81.5t-43.5 -54.5t-57 -30t-68 -9z" unicode="G" horiz-adv-x="440"/>
<glyph glyph-name="H" d="M234 0l55 288h-87l-55 -288h-136l135 696h136l-54 -276h87l54 276h135l-135 -696h-135z" unicode="H" horiz-adv-x="459"/>
<glyph glyph-name="I" d="M13 0l135 696h136l-135 -696h-136z" unicode="I" horiz-adv-x="242"/>
<glyph glyph-name="J" d="M426 696l-103 -527q-16 -82 -63 -128.5t-131 -46.5q-47 0 -86 22t-63 70l108 78q10 -19 24 -29t25 -10q26 0 37.5 16t14.5 30l102 525h135z" unicode="J" horiz-adv-x="382"/>
<glyph glyph-name="K" d="M251 494l127 202h151l-202 -295l82 -401h-134l-48 266l-41 -62l-39 -204h-136l135 696h136l-38 -202h7z" unicode="K" horiz-adv-x="446"/>
<glyph glyph-name="L" d="M11 0l135 696h136l-109 -563h183l-26 -133h-319z" unicode="L" horiz-adv-x="378"/>
<glyph glyph-name="M" d="M232 136l-12 89l-12 103h-5l-63 -328h-135l135 696h125l30 -197l24 -134h6l71 137l107 194h129l-135 -696h-136l63 325h-4l-54 -108l-43 -81h-91z" unicode="M" horiz-adv-x="582"/>
<glyph glyph-name="N" d="M327 307l69 389h133l-135 -696h-116l-41 220l-22 132h-5l-67 -352h-135l135 696h119l37 -216q3 -16 6.5 -38.5t6.5 -47t6 -47.5t4 -40h5z" unicode="N" horiz-adv-x="481"/>
<glyph glyph-name="O" d="M269 702q75 0 120 -38t45 -110q0 -26 -6 -54l-62 -330q-15 -82 -60 -129t-133 -47q-79 0 -120.5 41t-41.5 109q0 11 1.5 23t3.5 24l64 336q9 45 23.5 77.5t37 54.5t54 32.5t74.5 10.5zM261 567q-17 0 -29 -10t-17 -33l-66 -342q-1 -5 -1.5 -8.5t-0.5 -7.5q0 -37 35 -37 q17 0 29 9.5t17 33.5l66 340q2 5 2 9.5v9.5q0 19 -10 27.5t-25 8.5z" unicode="O" horiz-adv-x="418"/>
<glyph glyph-name="P" d="M257 566l-35 -180h23q13 0 29 4.5t30 17t23 35.5t9 60q0 35 -15.5 49t-42.5 14h-21zM301 696q38 0 69 -8t53 -26.5t34 -50t12 -77.5q0 -136 -65 -207.5t-176 -71.5h-32l-49 -255h-136l135 696h155z" unicode="P" horiz-adv-x="428"/>
<glyph glyph-name="Q" d="M288 567q-17 0 -29 -10t-17 -33l-66 -342q-1 -5 -1.5 -8.5t-0.5 -7.5q0 -37 35 -37q17 0 29 9.5t17 33.5l66 340q2 5 2 9.5v9.5q0 19 -10 27.5t-25 8.5zM296 702q75 0 120 -38t45 -110q0 -26 -6 -54l-62 -330q-4 -20 -9.5 -37.5t-12.5 -32.5l60 -58l-85 -82l-56 51 q-40 -17 -90 -17q-78 0 -119.5 41t-41.5 110q0 11 1 22.5t3 23.5l64 336q17 89 61 132t128 43z" unicode="Q" horiz-adv-x="446"/>
<glyph glyph-name="R" d="M257 566l-32 -164h21q15 0 31.5 4t30.5 15.5t23 31t9 51.5t-17 47t-45 15h-21zM301 696q37 0 68.5 -8.5t54.5 -27.5t35.5 -50t12.5 -75q0 -50 -9 -87.5t-24.5 -65.5t-37.5 -47.5t-48 -32.5l42 -302h-139l-30 271h-27l-52 -271h-136l135 696h155z" unicode="R" horiz-adv-x="446"/>
<glyph glyph-name="S" d="M169 191q-5 -17 -5 -30q0 -14 7.5 -23.5t28.5 -9.5q20 0 33 10.5t20.5 27t10.5 36.5t3 39q0 20 -11.5 30.5t-41.5 24.5q-36 16 -60 33.5t-37.5 36.5t-19 39t-5.5 42q0 55 13.5 102t40.5 81t67.5 53t94.5 19q43 0 73 -10t48.5 -28t26.5 -41.5t8 -50.5q0 -31 -9 -64 l-135 -8q2 8 3 16t1 16q0 14 -7 24.5t-29 10.5q-17 0 -28 -9.5t-17.5 -23t-9 -28t-2.5 -25.5q0 -17 13 -31t52 -31q32 -14 53 -28.5t33 -31t17 -35.5t5 -41q0 -57 -10.5 -109.5t-36 -92.5t-68 -63.5t-105.5 -23.5q-42 0 -72 10.5t-49.5 28.5t-28.5 42.5t-9 53.5q0 24 6 50z " unicode="S" horiz-adv-x="427"/>
<glyph glyph-name="T" d="M317 566l-110 -566h-136l110 566h-107l25 130h350l-25 -130h-107z" unicode="T" horiz-adv-x="360"/>
<glyph glyph-name="U" d="M495 696l-102 -526q-35 -176 -195 -176q-40 0 -73 12t-55 35t-29 48.5t-7 45.5t5 42l101 519h136l-102 -518q-2 -7 -2 -13q0 -14 10 -25t27 -11t29 9.5t17 33.5l102 524h138z" unicode="U" horiz-adv-x="445"/>
<glyph glyph-name="V" d="M387 696h150l-268 -696h-172l3 696h147l-12 -261q-2 -51 -7 -104t-9 -110h6l65 195z" unicode="V" horiz-adv-x="447"/>
<glyph glyph-name="W" d="M346 331q-10 -30 -18 -53t-14.5 -42.5t-13.5 -37.5t-15 -39l-63 -159h-146l37 696h147l-16 -185q-5 -55 -11 -105.5t-12 -97.5h5l64 180l73 208h108l-6 -202q-1 -24 -2 -45.5t-2 -44t-2.5 -47.5t-2.5 -56h6l52 193l55 202h155l-233 -696h-146l3 140l4 191h-6z" unicode="W" horiz-adv-x="641"/>
<glyph glyph-name="X" d="M229 194l-98 -194h-168l214 363l-69 333h155l19 -162h6l80 162h170l-203 -333l78 -363h-156l-24 194h-4z" unicode="X" horiz-adv-x="450"/>
<glyph glyph-name="Y" d="M255 436l103 260h148l-217 -423l-53 -273h-137l53 273l-54 423h141l5 -138q1 -33 2 -54t1 -40v-28h8z" unicode="Y" horiz-adv-x="414"/>
<glyph glyph-name="Z" d="M-19 0l24 124l252 442h-157l25 130h309l-24 -120l-251 -445h165l-25 -131h-318z" unicode="Z" horiz-adv-x="360"/>
<glyph glyph-name="bracketleft" d="M1 -102l155 799h182l-19 -97h-60l-117 -605h60l-19 -97h-182z" unicode="[" horiz-adv-x="259"/>
<glyph glyph-name="backslash" d="M100 725h101l38 -767h-101z" unicode="\" horiz-adv-x="289"/>
<glyph glyph-name="bracketright" d="M-44 -103l18 97h60l118 606h-60l19 97h181l-156 -800h-180z" unicode="]" horiz-adv-x="259"/>
<glyph glyph-name="asciicircum" d="M278 531l-64 -122l-56 -101h-137l243 388h91l95 -391h-127l-19 101l-18 125h-8z" unicode="^"/>
<glyph glyph-name="underscore" d="M-71 -160l18 90h499l-18 -90h-499z" unicode="_" horiz-adv-x="500"/>
<glyph glyph-name="grave" d="M302 537l-129 194l97 52l97 -212z" unicode="`" horiz-adv-x="385"/>
<glyph glyph-name="a" d="M191 0l8 39h-5q-18 -25 -43 -35.5t-39 -10.5q-55 0 -75 25.5t-20 64.5q0 32 5.5 79.5t18.5 110.5q11 57 24.5 99.5t32.5 71t45.5 42.5t62.5 14q17 0 36.5 -8.5t30.5 -34.5l4 2l9 35h136l-96 -494h-135zM182 120q9 0 20 9t19 44l27 139q2 7 3 14t1 15q0 11 -5 19.5 t-20 8.5q-11 0 -18.5 -7t-9.5 -15q-3 -6 -9.5 -31.5t-13 -58t-11.5 -65t-5 -52.5q0 -18 22 -20z" unicode="a" horiz-adv-x="401"/>
<glyph glyph-name="b" d="M211 -6q-17 0 -36.5 8.5t-30.5 34.5l-4 -2l-8 -35h-137l141 726h138l-50 -258h5q20 20 40 26.5t34 6.5q53 0 75 -26.5t22 -67.5q0 -65 -24 -186q-11 -57 -24.5 -99.5t-32.5 -71t-45 -42.5t-63 -14zM235 374q-9 0 -20 -9t-19 -44l-27 -139q-2 -6 -3 -13.5t-1 -14.5 q0 -12 5 -20.5t20 -8.5q11 0 18.5 7t9.5 15q3 6 9.5 31.5t13 58t11.5 65t5 52.5q0 18 -22 20z" unicode="b" horiz-adv-x="401"/>
<glyph glyph-name="c" d="M169 -6q-38 0 -64.5 10t-43.5 26t-25.5 37t-9.5 43q-1 8 -1 17q0 20 4 51t9 67q7 45 19 91.5t28 76.5q20 39 59.5 64.5t99.5 25.5q37 0 66.5 -10.5t48 -31t24 -43t5.5 -39.5t-4 -37l-136 -15q2 13 2 22t-3.5 18t-14.5 9q-17 0 -27 -20q-5 -8 -12.5 -36.5t-15.5 -70.5 t-11.5 -67.5t-3.5 -37.5q2 -22 20 -22q11 0 20.5 10t14.5 35l132 -17q-14 -73 -60 -114.5t-120 -41.5z" unicode="c" horiz-adv-x="381"/>
<glyph glyph-name="d" d="M230 372q-10 0 -18 -6.5t-12 -16.5q-5 -13 -11.5 -44.5t-12.5 -64.5t-10.5 -60.5t-4.5 -31.5v-3q0 -8 5.5 -13.5t15.5 -5.5q12 0 19 5t12 16.5t9 31t10 49.5l2 11q7 38 12.5 67t5.5 42q0 11 -5.5 17.5t-16.5 6.5zM199 503q13 0 37 -6.5t37 -23.5h5l50 253h135l-138 -726 h-135l7 36l-4 2q-9 -14 -20.5 -22.5t-23.5 -13t-23.5 -6.5t-20.5 -2q-46 0 -69 22.5t-23 76.5q0 8 0.5 16.5t1.5 18.5q1 15 6.5 52t13.5 80t18 85t21 67q6 13 14.5 29t23 30t35.5 23t52 9z" unicode="d" horiz-adv-x="401"/>
<glyph glyph-name="e" d="M229 377q-19 0 -28.5 -18.5t-15.5 -52.5q37 0 51.5 12t14.5 38q0 8 -5.5 14.5t-16.5 6.5zM352 145q-8 -33 -21 -60.5t-33.5 -48t-50 -31.5t-71.5 -11q-45 0 -74.5 12.5t-46.5 34t-23.5 49.5t-6.5 58q0 26 3 52t8 50q8 45 20 90t33.5 81.5t55.5 59t87 22.5q72 0 112.5 -33 t40.5 -90q0 -50 -15.5 -84.5t-42 -56t-61.5 -31t-74 -9.5h-12.5t-13.5 1q-4 -14 -5.5 -29.5t-1.5 -23.5q1 -25 20 -25q14 0 22.5 8.5t14.5 29.5z" unicode="e" horiz-adv-x="408"/>
<glyph glyph-name="f" d="M102 388h-56l21 106h56l17 90q6 33 19 60t35 46.5t53 30.5t73 11q13 0 28.5 -1.5t28.5 -4.5l-24 -124q-7 2 -15 3t-14 1q-29 0 -39 -14t-12 -27l-13 -71h79l-21 -106h-79l-72 -389q-6 -33 -19 -60.5t-35 -47t-53 -30t-73 -10.5q-27 0 -57 6l24 124q7 -2 15 -2.5t14 -0.5 q28 0 38.5 13t12.5 27z" unicode="f" horiz-adv-x="302"/>
<glyph glyph-name="g" d="M180 121q9 0 20 9t19 44l27 139q2 6 3 13.5t1 14.5q0 12 -5 20.5t-20 8.5q-11 0 -18.5 -7t-9.5 -15q-3 -6 -9.5 -31.5t-13 -58t-11.5 -65t-5 -52.5q0 -18 22 -20zM148 -80q13 0 19.5 8t8.5 18l15 81h-5q-20 -20 -40 -26.5t-34 -6.5q-53 0 -75 26.5t-22 67.5 q1 32 6.5 78.5t17.5 107.5q11 57 24.5 99.5t32.5 71t45 42.5t63 14q17 0 36.5 -8.5t30.5 -34.5l4 2l8 35h137l-103 -530q-7 -36 -19 -67t-32.5 -53t-52 -34.5t-77.5 -12.5q-69 0 -108.5 38t-42.5 96l137 26q-1 -4 -1 -10q0 -13 8 -20.5t19 -7.5z" unicode="g" horiz-adv-x="401"/>
<glyph glyph-name="h" d="M228 447q17 24 45.5 39t51.5 15q36 0 54.5 -11.5t24.5 -28t6 -32.5q0 -6 -1.5 -20.5t-5.5 -38.5l-71 -370h-137l65 335q3 14 -1.5 25t-18.5 11q-17 0 -27 -14t-14 -33l-61 -324h-137l141 726h137l-56 -278z" unicode="h" horiz-adv-x="412"/>
<glyph glyph-name="i" d="M5 0l96 494h137l-96 -494h-137zM115 566l25 130h137l-25 -130h-137z" unicode="i" horiz-adv-x="227"/>
<glyph glyph-name="j" d="M136 -33q-17 -86 -65 -125t-124 -39q-10 0 -21.5 1t-21.5 3l24 128q5 -1 15 -1q34 0 45 18.5t18 51.5l96 491h137zM116 566l25 130h137l-25 -130h-137z" unicode="j" horiz-adv-x="226"/>
<glyph glyph-name="k" d="M223 387l88 107h171l-182 -199l82 -295h-155l-36 175l-20 -20l-30 -155h-136l141 725h136l-65 -337z" unicode="k" horiz-adv-x="432"/>
<glyph glyph-name="l" d="M164 164q-1 -5 -1 -8.5v-6.5q0 -17 9 -23t29 -6l-24 -125q-5 -1 -10 -1h-10q-70 0 -102 32.5t-32 84.5q0 11 1.5 22.5t3.5 24.5l109 568h137z" unicode="l" horiz-adv-x="234"/>
<glyph glyph-name="m" d="M519 501q33 0 51.5 -10t27 -26.5t8.5 -37.5q0 -22 -6 -51l-73 -376h-137l65 335q4 20 -2.5 28t-17.5 8t-21.5 -8.5t-15.5 -25.5l-65 -337h-137l65 335q4 20 -2.5 28t-17.5 8q-12 0 -23 -10t-15 -29l-64 -332h-137l96 495h137l-8 -41l5 -1q16 18 42.5 33t49.5 15t38 -5 t24 -13t14 -19t7 -24q25 27 57 44t55 17z" unicode="m" horiz-adv-x="607"/>
<glyph glyph-name="n" d="M229 447q17 24 45.5 39t51.5 15q27 0 43.5 -6.5t25.5 -18t12 -26.5t3 -32q0 -11 -2 -23.5t-4 -24.5l-71 -370h-137l65 335q1 5 1 13q0 13 -6 18t-15 5q-17 0 -27 -14t-14 -33l-61 -324h-137l96 495h137l-11 -47z" unicode="n" horiz-adv-x="413"/>
<glyph glyph-name="o" d="M236 376q-11 0 -18 -4t-12.5 -16t-11 -34t-12.5 -57l-14 -79q-2 -11 -3 -19.5t-1 -16.5q0 -12 4.5 -20t18.5 -8q11 0 19 7t10 15q2 4 6 18.5t8.5 35t9 43.5t8.5 45t6.5 40t2.5 27q0 10 -5.5 16.5t-15.5 6.5zM242 503q39 0 67.5 -11t47 -29.5t27 -42t8.5 -48.5 q0 -16 -1.5 -35.5t-4.5 -39.5l-6 -40t-6 -36q-12 -59 -26 -102t-36 -71t-54.5 -41.5t-80.5 -13.5q-41 0 -69.5 12.5t-46.5 32t-26 43.5t-8 47q0 27 3.5 56t9.5 61q5 24 10.5 49t11.5 48.5t13.5 44t15.5 34.5q23 41 62.5 61.5t88.5 20.5z" unicode="o" horiz-adv-x="401"/>
<glyph glyph-name="p" d="M185 123q10 0 18 6.5t12 16.5q3 9 7.5 26.5t8.5 38.5t8.5 44t7.5 42.5t5 33t2 16.5v3q0 8 -5.5 13.5t-15.5 5.5q-12 0 -19 -5t-12 -16.5t-9 -31t-10 -49.5l-2 -11q-7 -38 -12.5 -67t-5.5 -42q0 -11 5.5 -17.5t16.5 -6.5zM216 -8q-13 0 -37 6.5t-37 23.5h-5l-44 -215h-137 l134 688h135l-7 -36l4 -2q9 13 20.5 22t23.5 13.5t23.5 6.5t20.5 2q46 0 69 -22.5t23 -76.5q0 -8 -0.5 -16.5t-1.5 -18.5q-2 -15 -7 -52t-13 -80t-18 -85t-21 -67q-6 -14 -14.5 -29.5t-23 -29.5t-35.5 -23t-52 -9z" unicode="p" horiz-adv-x="410"/>
<glyph glyph-name="q" d="M206 500q17 0 36.5 -8.5t30.5 -34.5l4 2l9 35h136l-134 -687h-138l46 219h-5q-20 -20 -41.5 -26.5t-35.5 -6.5q-29 0 -48.5 8.5t-30.5 23t-14.5 31t-3.5 31.5q0 7 1 15q2 32 7 74t16 97q12 57 25.5 99.5t32 71t44.5 42.5t63 14zM182 120q9 -1 20 9t19 44l27 139 q2 8 3.5 18t0 18.5t-7 14.5t-17.5 6q-11 0 -18.5 -7t-9.5 -15q-3 -6 -9.5 -31.5t-13 -58t-11.5 -65t-5 -52.5q0 -18 22 -20z" unicode="q" horiz-adv-x="401"/>
<glyph glyph-name="r" d="M106 496h138l-12 -61h2q21 38 47 53t60 15q6 0 12 -0.5t12 -1.5l-26 -135q-15 3 -29 3q-42 0 -70.5 -23.5t-39.5 -76.5l-52 -269h-138z" unicode="r" horiz-adv-x="316"/>
<glyph glyph-name="s" d="M151 160q-1 -4 -1.5 -6.5t-0.5 -5.5q0 -14 8 -22t21 -8q20 0 30 15.5t10 31.5t-8 22.5t-19 10.5q-24 9 -48 17.5t-43 22t-31 34.5t-12 55q0 39 12.5 71t36 55.5t58 36.5t78.5 13q71 0 108.5 -32t37.5 -87q0 -16 -3 -32l-134 -14q1 3 1 7q0 13 -6 23t-20 10 q-12 0 -19 -5.5t-10.5 -12.5t-4.5 -13.5t-1 -8.5q0 -16 22 -23q30 -10 56 -20t44.5 -25t29 -37.5t10.5 -56.5q0 -35 -10 -68t-33 -58.5t-60 -40.5t-90 -15q-66 0 -106 30.5t-40 91.5q0 6 0.5 13t1.5 14z" unicode="s" horiz-adv-x="387"/>
<glyph glyph-name="t" d="M95 388h-45l21 107h45l25 130h129l-25 -130h56l-21 -107h-56l-42 -218q-1 -5 -2 -9.5t-1 -9.5q0 -11 7.5 -19t30.5 -8h12l-24 -124q-8 -2 -20 -2.5t-22 -0.5q-36 0 -59.5 9t-37 24t-19 33.5t-5.5 37.5q0 9 1 18t3 17z" unicode="t" horiz-adv-x="277"/>
<glyph glyph-name="u" d="M203 48q-17 -24 -45.5 -39t-51.5 -15q-36 0 -54.5 11.5t-24.5 28.5t-6 34q0 5 1 19t6 38l71 370h137l-65 -335q-3 -14 1.5 -25t18.5 -11q12 0 24.5 14t16.5 33l61 324h137l-96 -495h-137l11 47z" unicode="u" horiz-adv-x="413"/>
<glyph glyph-name="v" d="M186 186q13 29 26 65.5t26 77t25 82.5t22 83h155q-23 -68 -47.5 -130.5t-50.5 -122.5t-54 -119.5t-59 -121.5h-157l-19 494h148l-11 -191q-2 -26 -4 -51.5t-7 -65.5h7z" unicode="v" horiz-adv-x="401"/>
<glyph glyph-name="w" d="M311 247l-41 -135l-44 -112h-157l-11 494h153l-15 -191q-2 -26 -4.5 -54t-8.5 -63h7q28 76 54.5 151.5t46.5 156.5h141l-18 -191q-2 -26 -6 -57.5t-9 -59.5h7q28 76 52.5 151.5t44.5 156.5h158q-21 -67 -44.5 -129.5t-49.5 -123t-55 -120.5t-60 -121h-157l7 111l15 136 h-6z" unicode="w" horiz-adv-x="624"/>
<glyph glyph-name="x" d="M198 143l-76 -143h-159l169 252l-67 243h150l16 -135h4l67 135h159l-165 -243l75 -252h-150l-17 143h-6z" unicode="x" horiz-adv-x="417"/>
<glyph glyph-name="y" d="M179 189q29 66 53 139.5t50 165.5h144q-52 -150 -109 -281.5t-113 -234.5q-21 -39 -46.5 -73t-56.5 -58t-66.5 -36.5t-75.5 -12.5h-12l-2 118q46 4 75 24t58 71l-27 483h143l-5 -155q-1 -12 -2 -31.5t-3 -40.5t-4.5 -42t-5.5 -36h5z" unicode="y" horiz-adv-x="383"/>
<glyph glyph-name="z" d="M-12 0l23 121l187 252h-127l24 122h283l-22 -112l-192 -256h142l-24 -127h-294z" unicode="z" horiz-adv-x="350"/>
<glyph glyph-name="braceleft" d="M148 298q26 -11 34 -34.5t8 -45.5q0 -17 -4 -37l-29 -148q-3 -15 0 -23t8.5 -11.5t12 -4.5t10.5 -1h18l-19 -96h-49q-23 0 -44.5 6.5t-36.5 22t-19.5 34.5t-4.5 34q0 18 4 41l26 138q4 19 4 34q0 21 -10 37t-36 18l16 81q28 2 47.5 21.5t28.5 64.5l28 145q6 28 14.5 50.5 t25.5 38.5t44 24.5t69 8.5h45l-19 -96h-20q-8 0 -22 -8t-19 -36l-27 -135q-8 -41 -30 -71.5t-53 -44.5z" unicode="{" horiz-adv-x="259"/>
<glyph glyph-name="bar" d="M76 -162v892h107v-892h-107z" unicode="|" horiz-adv-x="259"/>
<glyph glyph-name="braceright" d="M146 296q-26 11 -34 34.5t-8 45.5q0 17 4 37l29 148q3 15 0 23t-8.5 11.5t-12 4.5t-10.5 1h-18l19 96h49q23 0 44.5 -6.5t36.5 -22t19.5 -35t4.5 -35.5q0 -18 -4 -39l-26 -138q-4 -19 -4 -34q0 -21 10 -37t36 -18l-16 -81q-28 -2 -47.5 -21.5t-28.5 -64.5l-28 -145 q-6 -28 -14.5 -50.5t-25.5 -38.5t-44 -24.5t-69 -8.5h-45l19 96h20q8 0 22 8t19 36l27 135q8 41 30 71.5t53 44.5z" unicode="}" horiz-adv-x="259"/>
<glyph glyph-name="asciitilde" d="M192 393q19 0 36 -8.5t31 -18t27 -17.5t25 -8q17 0 32.5 9t39.5 36l65 -44q-36 -62 -70.5 -85.5t-69.5 -23.5q-20 0 -37.5 8t-32.5 17.5t-29 17.5t-27 8q-9 0 -18 -1t-18.5 -5.5t-21 -13t-26.5 -24.5l-61 43q37 58 72.5 84t82.5 26z" unicode="~"/>
<glyph glyph-name="exclamdown" d="M258 495l-27 -139h-128l27 139h128zM99 292h113l-86 -493h-133z" unicode="¡" horiz-adv-x="275"/>
<glyph glyph-name="cent" d="M293 499q56 -11 79.5 -44.5t23.5 -73.5q0 -18 -4 -39l-136 -15q2 13 2 22t-3.5 18t-14.5 9q-17 0 -27 -20q-5 -8 -12.5 -36.5t-15.5 -70.5t-11.5 -67.5t-3.5 -37.5q2 -22 20 -22q11 0 20.5 10t14.5 35l132 -17q-13 -66 -55.5 -106t-105.5 -48l-19 -98h-51l19 98 q-27 3 -47.5 13.5t-34 26t-21 35t-8.5 39.5q-1 8 -1 17q0 20 4 51t9 67q7 45 19 91.5t28 76.5q20 38 56.5 63t93.5 27l18 91h51z" unicode="¢"/>
<glyph glyph-name="sterling" d="M300 703q82 0 124.5 -38.5t42.5 -98.5q0 -28 -9 -59l-136 -7q2 7 3 14.5t1 14.5q0 16 -7.5 27.5t-27.5 11.5q-27 0 -39.5 -21t-12.5 -49t5 -58t5 -68h99l-20 -103h-97q-13 -48 -27 -80.5t-35 -63.5h199l-24 -125h-353l21 112q31 34 52 70t34 87h-56l20 103h50 q-2 25 -5.5 49.5t-3.5 53.5q0 50 14.5 92t41 72t62.5 47t79 17z" unicode="£"/>
<glyph glyph-name="currency" d="M295 292q25 27 25 62q0 32 -22.5 53t-53.5 21q-38 0 -61 -23t-23 -58q0 -32 22.5 -55t54.5 -23q16 0 31.5 6t26.5 17zM101 132l-77 77l63 63q-17 36 -17 74q0 40 18 76l-61 62l79 78l61 -61q36 18 78 18q40 0 73 -16l63 63l77 -77l-62 -62q18 -35 18 -75q0 -39 -19 -79 l62 -62l-79 -79l-62 62q-38 -19 -76 -19q-39 0 -77 19z" unicode="¤" horiz-adv-x="513"/>
<glyph glyph-name="yen" d="M262 420l46 124l58 152h148l-177 -342h63l-13 -68h-84l-6 -13l-6 -28h88l-13 -67h-88l-34 -178h-137l34 178h-83l13 67h83l5 28l-1 13h-79l13 68h57l-43 342h141l6 -153l1 -123h8z" unicode="¥"/>
<glyph glyph-name="brokenbar" d="M183 232v-402h-107v402h107zM76 326v396h107v-396h-107z" unicode="¦" horiz-adv-x="259"/>
<glyph glyph-name="section" d="M296 296q1 2 1 7q0 18 -20.5 36t-64.5 42q-11 -6 -20.5 -16t-9.5 -21t8.5 -22t21 -21.5t28 -20.5t30.5 -18q9 5 16.5 15t9.5 19zM313 702q48 0 84.5 -16.5t74.5 -54.5l-84 -89q-28 31 -50.5 37.5t-40.5 6.5q-20 0 -34 -12t-14 -29q0 -14 13 -28t32 -29t42 -31.5t42 -36 t32 -42.5t13 -51q0 -83 -73 -126q18 -42 18 -82q0 -38 -14.5 -71.5t-41 -58.5t-63.5 -39.5t-82 -14.5q-22 0 -45.5 5.5t-46.5 16t-43.5 25.5t-35.5 33l83 85q28 -31 50.5 -42t39.5 -11q29 0 46.5 14.5t17.5 34.5q0 40 -69 84q-48 31 -76 60t-28 74q0 41 21.5 79t66.5 56 q-16 17 -21.5 38t-5.5 42q0 37 14.5 68.5t40 54.5t60.5 36.5t77 13.5z" unicode="§" horiz-adv-x="423"/>
<glyph glyph-name="dieresis" d="M93 547l25 130h118l-25 -130h-118zM267 547l25 130h119l-25 -130h-119z" unicode="¨" horiz-adv-x="346"/>
<glyph glyph-name="copyright" d="M346 615q-56 0 -97.5 -21.5t-69 -59t-41 -87t-13.5 -106.5q0 -56 14.5 -105t42.5 -86t69.5 -58.5t94.5 -21.5q55 0 96.5 21.5t69.5 58.5t41.5 86t13.5 105q0 57 -14.5 106.5t-42 87t-69 59t-95.5 21.5zM346 -8q-75 0 -132 26.5t-95.5 73.5t-58 110.5t-19.5 138.5 q0 76 19.5 140t58 111t95.5 73.5t132 26.5q73 0 130 -26.5t96 -73.5t59 -111t20 -140q0 -75 -20 -138.5t-59 -110.5t-96 -73.5t-130 -26.5zM345 550q25 0 46 -8.5t36.5 -23.5t24.5 -34.5t10 -41.5l-80 -20q-2 20 -11 32.5t-24 12.5q-21 0 -27.5 -9.5t-6.5 -23.5v-199 q0 -12 9 -21t23 -9q31 0 34 44l82 -16q-5 -51 -33.5 -81t-82.5 -30q-49 0 -81.5 28.5t-32.5 86.5v198q0 54 32 84.5t82 30.5z" unicode="©" horiz-adv-x="703"/>
<glyph glyph-name="ordfeminine" d="M167 360q4 0 11.5 6t10.5 25l20 98q1 5 1.5 10.5t0.5 10.5t-2 9.5t-9 4.5q-8 0 -12 -4t-5 -8q-2 -4 -6 -21t-8.5 -38.5t-8 -43.5t-3.5 -36q0 -13 10 -13zM170 280l4 19q-9 -14 -25 -19t-26 -5q-33 0 -51.5 18t-18.5 45q0 22 3 52t11 71q7 37 16 65.5t22 47t31.5 28 t44.5 9.5q11 0 24 -4.5t23 -16.5l4 18h103l-63 -328h-102z" unicode="ª" horiz-adv-x="277"/>
<glyph glyph-name="guillemotleft" d="M335 46l-76 201l154 200h129l-164 -202l76 -199h-119zM130 46l-76 201l154 200h129l-164 -202l76 -199h-119z" unicode="«" horiz-adv-x="539"/>
<glyph glyph-name="logicalnot" d="M384 92h-109l30 151h-279l21 111h388z" unicode="¬"/>
<glyph glyph-name="sfthyphen" d="M50 216l24 120h296l-24 -120h-296z" unicode="­" horiz-adv-x="383"/>
<glyph glyph-name="registered" d="M246 649q-37 0 -64.5 -14t-45.5 -38t-26.5 -56.5t-8.5 -69.5q0 -78 37 -127t108 -49q37 0 63.5 13.5t43.5 37.5t25.5 56t8.5 69t-9 69.5t-27 56.5t-44.5 38t-60.5 14zM246 235q-51 0 -89.5 17.5t-64.5 49t-39 74.5t-13 93q0 51 13 94t39 74.5t64.5 49t89.5 17.5 q49 0 86.5 -17.5t63.5 -49t39.5 -74.5t13.5 -94q0 -50 -13.5 -93t-39.5 -74.5t-63.5 -49t-86.5 -17.5zM270 526q0 16 -5.5 24.5t-22.5 8.5h-11v-66h14q15 0 20 8.5t5 24.5zM249 612q78 0 78 -86q0 -23 -6.5 -42.5t-25.5 -32.5q10 -28 21.5 -57.5t22.5 -57.5h-64l-35 104h-9 v-104h-60v276h78z" unicode="®" horiz-adv-x="486"/>
<glyph glyph-name="macron" d="M157 566l21 110h252l-21 -110h-252z" unicode="¯" horiz-adv-x="383"/>
<glyph glyph-name="degree" d="M308 571q0 -27 -10 -51t-28 -42t-42 -28t-51 -10t-50.5 10t-41.5 28t-28 42t-10 51t10 51t28 41.5t41.5 28t50.5 10.5t51 -10.5t42 -28t28 -41.5t10 -51zM224 571q0 20 -13 33.5t-34 13.5q-20 0 -33 -13.5t-13 -33.5t13 -34t33 -14q21 0 34 14t13 34z" unicode="°" horiz-adv-x="353"/>
<glyph glyph-name="plusminus" d="M388 105l-20 -105h-389l20 105h389zM281 275l-27 -141h-109l27 141h-140l21 109h140l28 141h109l-28 -141h140l-21 -109h-140z" unicode="±"/>
<glyph glyph-name="twosuperior" d="M48 370l15 77l149 185q11 14 17.5 31t6.5 25q0 6 -3.5 10.5t-11.5 4.5q-11 0 -20 -9.5t-12 -38.5l-91 12q12 63 48.5 92.5t84.5 29.5q46 0 75 -21.5t29 -63.5q0 -31 -13 -56t-37 -59l-102 -131h98l-17 -88h-216z" unicode="²" horiz-adv-x="280"/>
<glyph glyph-name="threesuperior" d="M230 789q57 0 78 -27t21 -67q0 -12 -2 -25q-4 -25 -15.5 -49t-37.5 -36q23 -9 24 -22.5t1 -18.5q0 -20 -5 -48q-6 -29 -14.5 -53t-23.5 -41t-37 -26.5t-54 -9.5q-24 0 -44.5 7.5t-35 22t-19 30.5t-4.5 29q0 12 3 26l95 9q-5 -24 1.5 -30t11.5 -6q17 0 20 19l10 49 q3 14 -5.5 19t-19.5 5h-22l14 76h29q11 0 18.5 5t9.5 17l9 41q1 5 -1.5 11t-14.5 6q-7 0 -17 -8.5t-12 -36.5l-90 13q12 59 42.5 89t86.5 30z" unicode="³" horiz-adv-x="280"/>
<glyph glyph-name="acute" d="M200 574l136 186l98 -54l-170 -175z" unicode="´" horiz-adv-x="385"/>
<glyph glyph-name="paragraph" d="M159 308q-55 11 -78 45.5t-23 84.5q0 39 12.5 84.5t40.5 83.5t73.5 63.5t110.5 25.5h229l-22 -109h-45l-125 -644h-101l125 644h-39l-125 -644h-104z" unicode="¶" horiz-adv-x="462"/>
<glyph glyph-name="periodcentered" d="M47 200l29 150h135l-29 -150h-135z" unicode="·" horiz-adv-x="229"/>
<glyph glyph-name="cedilla" d="M185 34l-38 -70q43 -6 58 -28t15 -44q0 -11 -4 -28t-16 -33.5t-34.5 -28.5t-60.5 -12q-4 0 -14 0.5t-23.5 2.5t-29.5 7t-32 13l31 58q21 -10 34.5 -12.5t24.5 -2.5q17 0 27.5 9.5t10.5 22.5t-9 17t-24 4l-30 23l53 102h61z" unicode="¸" horiz-adv-x="431"/>
<glyph glyph-name="onesuperior" d="M100 370l60 307l-65 -41l19 101l79 49h85l-81 -416h-97z" unicode="¹" horiz-adv-x="221"/>
<glyph glyph-name="ordmasculine" d="M164 361q9 0 13 8t7 20l10 48q5 23 8.5 45t3.5 33q0 5 -3 9t-10 4q-11 0 -16.5 -17t-15.5 -66q-1 -4 -2.5 -12.5t-3 -18l-3 -19t-1.5 -14.5q0 -20 13 -20zM195 613q57 0 84.5 -27.5t27.5 -61.5q0 -22 -3.5 -50t-8.5 -49q-8 -38 -17.5 -66.5t-24.5 -47t-37 -27.5t-54 -9 t-53.5 9t-34.5 22.5t-18 29.5t-5 31q0 19 2 37.5t6 38.5q6 30 13 63t19 51q17 27 41.5 41.5t62.5 14.5z" unicode="º" horiz-adv-x="278"/>
<glyph glyph-name="guillemotright" d="M218 448l76 -201l-154 -200h-129l164 202l-76 199h119zM423 448l76 -201l-154 -200h-129l164 202l-76 199h119z" unicode="»" horiz-adv-x="539"/>
<glyph glyph-name="onequarter" d="M573 57l-11 -57h-88l11 57h-134l14 71l145 288h91l-139 -279h38l18 84h88l-18 -84h25l-15 -80h-25zM160 -17h-81l456 731h81zM120 280l60 307l-65 -41l19 101l79 49h85l-81 -416h-97z" unicode="¼" horiz-adv-x="657"/>
<glyph glyph-name="onehalf" d="M368 0l15 77l149 185q11 14 17.5 31t6.5 25q0 6 -3.5 10.5t-11.5 4.5q-11 0 -20 -9.5t-12 -38.5l-91 12q12 63 48.5 92.5t84.5 29.5q46 0 75 -21.5t29 -63.5q0 -31 -13 -56t-37 -59l-102 -131h98l-17 -88h-216zM142 -17h-81l456 731h81zM99 280l60 307l-65 -41l19 101 l79 49h85l-81 -416h-97z" unicode="½" horiz-adv-x="657"/>
<glyph glyph-name="threequarters" d="M588 57l-11 -57h-88l11 57h-134l14 71l145 288h91l-139 -279h38l18 84h88l-18 -84h25l-15 -80h-25zM175 -17h-81l456 731h81zM219 699q57 0 78 -27t21 -67q0 -12 -2 -25q-4 -25 -15.5 -49t-37.5 -36q23 -9 24 -22.5t1 -18.5q0 -20 -5 -48q-6 -29 -14.5 -53t-23.5 -41 t-37 -26.5t-54 -9.5q-24 0 -44.5 7.5t-35 22t-19 30.5t-4.5 29q0 12 3 26l95 9q-5 -24 1.5 -30t11.5 -6q17 0 20 19l10 49q3 14 -5.5 19t-19.5 5h-22l14 76h29q11 0 18.5 5t9.5 17l9 41q1 5 -1.5 11t-14.5 6q-7 0 -17 -8.5t-12 -36.5l-90 13q12 59 42.5 89t86.5 30z" unicode="¾" horiz-adv-x="657"/>
<glyph glyph-name="questiondown" d="M335 496l-27 -139h-128l27 139h128zM169 -206q-76 0 -120.5 38.5t-44.5 110.5q0 33 5 58.5t13.5 45.5t19 36.5t21.5 30.5q31 40 48.5 63.5t26.5 38.5t13 26t8 26l9 37h133l-12 -61q-5 -28 -19 -54t-28 -46q-28 -39 -46.5 -62.5t-29 -41t-14.5 -33t-4 -38.5q0 -15 9 -27.5 t29 -12.5q8 0 17 3t17 11t14.5 22.5t8.5 37.5l127 -13q-6 -53 -22 -90.5t-41.5 -61t-60 -34t-77.5 -10.5z" unicode="¿" horiz-adv-x="394"/>
<glyph glyph-name="Agrave" d="M315 718l-188 107l77 93l160 -132zM240 375l-35 -111h63l8 111l13 141h-6zM263 136h-102l-47 -136h-145l267 696h166l-2 -696h-142z" unicode="À" horiz-adv-x="449"/>
<glyph glyph-name="Aacute" d="M272 786l193 130l58 -93l-215 -105zM240 375l-35 -111h63l8 111l13 141h-6zM263 136h-102l-47 -136h-145l267 696h166l-2 -696h-142z" unicode="Á" horiz-adv-x="449"/>
<glyph glyph-name="Acircumflex" d="M335 810l-140 -86l-47 47l162 145h79l101 -144l-57 -48zM240 375l-35 -111h63l8 111l13 141h-6zM263 136h-102l-47 -136h-145l267 696h166l-2 -696h-142z" unicode="Â" horiz-adv-x="449"/>
<glyph glyph-name="Atilde" d="M272 863q15 0 29 -5.5t26 -11.5t22.5 -11.5t19.5 -5.5q6 0 11.5 0.5t12 3.5t14.5 10t19 19l58 -36q-26 -56 -55.5 -75t-56.5 -19q-17 0 -30.5 5.5t-25 12t-22 12t-22.5 5.5q-11 0 -24 -6.5t-33 -29.5l-57 42q31 54 59.5 72t54.5 18zM240 375l-35 -111h63l8 111l13 141h-6 zM263 136h-102l-47 -136h-145l267 696h166l-2 -696h-142z" unicode="Ã" horiz-adv-x="449"/>
<glyph glyph-name="Adieresis" d="M179 729l25 130h118l-25 -130h-118zM353 729l25 130h119l-25 -130h-119zM240 375l-35 -111h63l8 111l13 141h-6zM263 136h-102l-47 -136h-145l267 696h166l-2 -696h-142z" unicode="Ä" horiz-adv-x="449"/>
<glyph glyph-name="Aring" d="M333 818q-14 0 -25 -11t-11 -25q0 -11 8 -18t19 -7q14 0 25 10t11 26q0 11 -8 18t-19 7zM240 375l-35 -111h63l8 111l13 141h-6zM263 136h-102l-47 -136h-145l267 696h38q-22 10 -35.5 29t-13.5 43t8 46.5t23 39t36.5 26.5t47.5 10q38 0 64.5 -23t26.5 -58 q0 -38 -18 -68.5t-51 -44.5h40l-2 -696h-142z" unicode="Å" horiz-adv-x="449"/>
<glyph glyph-name="AE" d="M240 281h77l40 283h-5zM278 0l21 151h-110l-60 -151h-144l282 696h427l-18 -130h-183l-20 -146h160l-19 -133h-160l-21 -156h183l-17 -131h-321z" unicode="Æ" horiz-adv-x="642"/>
<glyph glyph-name="Ccedilla" d="M310 702q81 0 120 -40t39 -100q0 -22 -4 -39l-135 -23q1 5 1.5 9.5t0.5 9.5q0 23 -10 38t-28 15q-14 0 -23 -5.5t-15.5 -13.5t-10 -17.5t-4.5 -16.5l-69 -355q-1 -4 -1 -12q0 -11 6.5 -19.5t27.5 -8.5q43 0 60 72l131 -18q-6 -41 -20.5 -74.5t-38.5 -58t-58.5 -38 t-81.5 -13.5h-1l-16 -30q43 -6 58 -28t15 -44q0 -11 -4 -28t-16 -33.5t-34.5 -28.5t-60.5 -12q-4 0 -14 0.5t-23.5 2.5t-29.5 7t-32 13l31 58q21 -10 34.5 -12.5t24.5 -2.5q17 0 27.5 9.5t10.5 22.5t-9 17t-24 4l-30 23l35 68q-104 23 -104 130q0 20 5 48l66 341q8 41 23 75 t39 58t59 37t83 13z" unicode="Ç" horiz-adv-x="427"/>
<glyph glyph-name="Egrave" d="M347 718l-188 107l77 93l160 -132zM11 0l135 696h319l-25 -130h-183l-29 -146h160l-26 -133h-160l-29 -157h183l-26 -130h-319z" unicode="È" horiz-adv-x="394"/>
<glyph glyph-name="Eacute" d="M230 786l193 130l58 -93l-215 -105zM11 0l135 696h319l-25 -130h-183l-29 -146h160l-26 -133h-160l-29 -157h183l-26 -130h-319z" unicode="É" horiz-adv-x="394"/>
<glyph glyph-name="Ecircumflex" d="M320 810l-140 -86l-47 47l162 145h79l101 -144l-57 -48zM11 0l135 696h319l-25 -130h-183l-29 -146h160l-26 -133h-160l-29 -157h183l-26 -130h-319z" unicode="Ê" horiz-adv-x="394"/>
<glyph glyph-name="Edieresis" d="M164 729l25 130h118l-25 -130h-118zM338 729l25 130h119l-25 -130h-119zM11 0l135 696h319l-25 -130h-183l-29 -146h160l-26 -133h-160l-29 -157h183l-26 -130h-319z" unicode="Ë" horiz-adv-x="394"/>
<glyph glyph-name="Igrave" d="M224 718l-188 107l77 93l160 -132zM13 0l135 696h136l-135 -696h-136z" unicode="Ì" horiz-adv-x="242"/>
<glyph glyph-name="Iacute" d="M194 786l193 130l58 -93l-215 -105zM13 0l135 696h136l-135 -696h-136z" unicode="Í" horiz-adv-x="242"/>
<glyph glyph-name="Icircumflex" d="M241 810l-140 -86l-47 47l162 145h79l101 -144l-57 -48zM13 0l135 696h136l-135 -696h-136z" unicode="Î" horiz-adv-x="242"/>
<glyph glyph-name="Idieresis" d="M75 729l25 130h118l-25 -130h-118zM249 729l25 130h119l-25 -130h-119zM13 0l135 696h136l-135 -696h-136z" unicode="Ï" horiz-adv-x="242"/>
<glyph glyph-name="Eth" d="M256 562l-35 -177h44l-17 -86h-44l-32 -168h24q32 0 44 15t18 45q23 119 36 185.5t19 99t7.5 41t1.5 11.5q0 17 -9 25.5t-33 8.5h-24zM311 696q62 0 102 -21.5t45 -72.5v-18q0 -33 -6 -93t-23 -142q-17 -86 -29 -145.5t-32 -100.5q-31 -59 -76.5 -81t-98.5 -22h-181 l58 299h-44l16 86h44l61 311h164z" unicode="Ð" horiz-adv-x="446"/>
<glyph glyph-name="Ntilde" d="M296 863q15 0 29 -5.5t26 -11.5t22.5 -11.5t19.5 -5.5q6 0 11.5 0.5t12 3.5t14.5 10t19 19l58 -36q-26 -56 -55.5 -75t-56.5 -19q-17 0 -30.5 5.5t-25 12t-22 12t-22.5 5.5q-11 0 -24 -6.5t-33 -29.5l-57 42q31 54 59.5 72t54.5 18zM327 307l69 389h133l-135 -696h-116 l-41 220l-22 132h-5l-67 -352h-135l135 696h119l37 -216q3 -16 6.5 -38.5t6.5 -47t6 -47.5t4 -40h5z" unicode="Ñ" horiz-adv-x="481"/>
<glyph glyph-name="Ograve" d="M344 718l-188 107l77 93l160 -132zM296 702q75 0 120 -38t45 -110q0 -26 -6 -54l-62 -330q-15 -82 -60 -129t-133 -47q-79 0 -120.5 41t-41.5 109q0 11 1.5 23t3.5 24l64 336q9 45 23.5 77.5t37 54.5t54 32.5t74.5 10.5zM288 567q-17 0 -29 -10t-17 -33l-66 -342 q-1 -5 -1.5 -8.5t-0.5 -7.5q0 -37 35 -37q17 0 29 9.5t17 33.5l66 340q2 5 2 9.5v9.5q0 19 -10 27.5t-25 8.5z" unicode="Ò" horiz-adv-x="445"/>
<glyph glyph-name="Oacute" d="M272 786l193 130l58 -93l-215 -105zM296 702q75 0 120 -38t45 -110q0 -26 -6 -54l-62 -330q-15 -82 -60 -129t-133 -47q-79 0 -120.5 41t-41.5 109q0 11 1.5 23t3.5 24l64 336q9 45 23.5 77.5t37 54.5t54 32.5t74.5 10.5zM288 567q-17 0 -29 -10t-17 -33l-66 -342 q-1 -5 -1.5 -8.5t-0.5 -7.5q0 -37 35 -37q17 0 29 9.5t17 33.5l66 340q2 5 2 9.5v9.5q0 19 -10 27.5t-25 8.5z" unicode="Ó" horiz-adv-x="445"/>
<glyph glyph-name="Ocircumflex" d="M334 810l-140 -86l-47 47l162 145h79l101 -144l-57 -48zM296 702q75 0 120 -38t45 -110q0 -26 -6 -54l-62 -330q-15 -82 -60 -129t-133 -47q-79 0 -120.5 41t-41.5 109q0 11 1.5 23t3.5 24l64 336q9 45 23.5 77.5t37 54.5t54 32.5t74.5 10.5zM288 567q-17 0 -29 -10 t-17 -33l-66 -342q-1 -5 -1.5 -8.5t-0.5 -7.5q0 -37 35 -37q17 0 29 9.5t17 33.5l66 340q2 5 2 9.5v9.5q0 19 -10 27.5t-25 8.5z" unicode="Ô" horiz-adv-x="445"/>
<glyph glyph-name="Otilde" d="M270 863q15 0 29 -5.5t26 -11.5t22.5 -11.5t19.5 -5.5q6 0 11.5 0.5t12 3.5t14.5 10t19 19l58 -36q-26 -56 -55.5 -75t-56.5 -19q-17 0 -30.5 5.5t-25 12t-22 12t-22.5 5.5q-11 0 -24 -6.5t-33 -29.5l-57 42q31 54 59.5 72t54.5 18zM296 702q75 0 120 -38t45 -110 q0 -26 -6 -54l-62 -330q-15 -82 -60 -129t-133 -47q-79 0 -120.5 41t-41.5 109q0 11 1.5 23t3.5 24l64 336q9 45 23.5 77.5t37 54.5t54 32.5t74.5 10.5zM288 567q-17 0 -29 -10t-17 -33l-66 -342q-1 -5 -1.5 -8.5t-0.5 -7.5q0 -37 35 -37q17 0 29 9.5t17 33.5l66 340 q2 5 2 9.5v9.5q0 19 -10 27.5t-25 8.5z" unicode="Õ" horiz-adv-x="445"/>
<glyph glyph-name="Odieresis" d="M174 729l25 130h118l-25 -130h-118zM348 729l25 130h119l-25 -130h-119zM296 702q75 0 120 -38t45 -110q0 -26 -6 -54l-62 -330q-15 -82 -60 -129t-133 -47q-79 0 -120.5 41t-41.5 109q0 11 1.5 23t3.5 24l64 336q9 45 23.5 77.5t37 54.5t54 32.5t74.5 10.5zM288 567 q-17 0 -29 -10t-17 -33l-66 -342q-1 -5 -1.5 -8.5t-0.5 -7.5q0 -37 35 -37q17 0 29 9.5t17 33.5l66 340q2 5 2 9.5v9.5q0 19 -10 27.5t-25 8.5z" unicode="Ö" horiz-adv-x="445"/>
<glyph glyph-name="multiply" d="M310 288l97 -128l-89 -73l-99 128l-149 -120l-64 84l150 120l-98 128l88 73l99 -128l149 121l64 -85z" unicode="×"/>
<glyph glyph-name="Oslash" d="M209 129q17 0 29 9.5t17 33.5l37 193l-114 -172l-2 -11q-1 -5 -1.5 -8.5t-0.5 -7.5q0 -37 35 -37zM288 567q-17 0 -29 -10t-17 -33l-47 -243l115 174l11 57q2 5 2 9.5v9.5q0 19 -10 27.5t-25 8.5zM296 702q47 0 82 -15t56 -44l39 59l31 -20l-51 -76q8 -24 8 -52 q0 -26 -6 -54l-62 -330q-15 -82 -60 -129t-133 -47q-42 0 -73 12t-52 33l-30 -45l-28 18l37 57q-16 31 -16 75q0 11 1.5 23t3.5 24l64 336q9 45 23.5 77.5t37 54.5t54 32.5t74.5 10.5z" unicode="Ø" horiz-adv-x="445"/>
<glyph glyph-name="Ugrave" d="M352 718l-188 107l77 93l160 -132zM495 696l-102 -526q-35 -176 -195 -176q-40 0 -73 12t-55 35t-29 48.5t-7 45.5t5 42l101 519h136l-102 -518q-2 -7 -2 -13q0 -14 10 -25t27 -11t29 9.5t17 33.5l102 524h138z" unicode="Ù" horiz-adv-x="445"/>
<glyph glyph-name="Uacute" d="M272 786l193 130l58 -93l-215 -105zM495 696l-102 -526q-35 -176 -195 -176q-40 0 -73 12t-55 35t-29 48.5t-7 45.5t5 42l101 519h136l-102 -518q-2 -7 -2 -13q0 -14 10 -25t27 -11t29 9.5t17 33.5l102 524h138z" unicode="Ú" horiz-adv-x="445"/>
<glyph glyph-name="Ucircumflex" d="M340 810l-140 -86l-47 47l162 145h79l101 -144l-57 -48zM495 696l-102 -526q-35 -176 -195 -176q-40 0 -73 12t-55 35t-29 48.5t-7 45.5t5 42l101 519h136l-102 -518q-2 -7 -2 -13q0 -14 10 -25t27 -11t29 9.5t17 33.5l102 524h138z" unicode="Û" horiz-adv-x="445"/>
<glyph glyph-name="Udieresis" d="M181 729l25 130h118l-25 -130h-118zM355 729l25 130h119l-25 -130h-119zM495 696l-102 -526q-35 -176 -195 -176q-40 0 -73 12t-55 35t-29 48.5t-7 45.5t5 42l101 519h136l-102 -518q-2 -7 -2 -13q0 -14 10 -25t27 -11t29 9.5t17 33.5l102 524h138z" unicode="Ü" horiz-adv-x="445"/>
<glyph glyph-name="Yacute" d="M250 786l193 130l58 -93l-215 -105zM255 436l103 260h148l-217 -423l-53 -273h-137l53 273l-54 423h141l5 -138q1 -33 2 -54t1 -40v-28h8z" unicode="Ý" horiz-adv-x="414"/>
<glyph glyph-name="Thorn" d="M233 445l-35 -180h21q15 0 32 7.5t30.5 23t22.5 39t9 55.5q0 30 -14.5 42.5t-40.5 12.5h-25zM283 575q73 0 118.5 -33t45.5 -112q0 -62 -14.5 -115.5t-44.5 -94t-75 -63.5t-106 -23h-34l-26 -134h-136l135 696h135l-24 -121h26z" unicode="Þ" horiz-adv-x="428"/>
<glyph glyph-name="germandbls" d="M373 429q29 -18 34.5 -41t5.5 -40q0 -16 -3 -33q-12 -68 -21.5 -126t-27.5 -101.5t-49 -68t-86 -24.5q-11 0 -23 1t-26 4l22 114q13 0 25.5 8.5t16.5 28.5l31 159q3 15 3 25q0 12 -5.5 22t-25.5 15l21 107q18 2 26.5 15.5t12.5 36.5q5 27 6 33.5t1 8.5q0 10 -5 17t-19 7 q-15 0 -24 -12.5t-11 -24.5l-108 -560h-137l108 560q7 36 21.5 66.5t38 52.5t55.5 34.5t74 12.5q50 0 80.5 -15.5t45.5 -42.5t16 -48.5t1 -28.5q0 -29 -6 -61q-5 -27 -21 -55t-45 -42z" unicode="ß" horiz-adv-x="429"/>
<glyph glyph-name="agrave" d="M255 537l-129 194l97 52l97 -212zM191 0l8 39h-5q-18 -25 -43 -35.5t-39 -10.5q-55 0 -75 25.5t-20 64.5q0 32 5.5 79.5t18.5 110.5q11 57 24.5 99.5t32.5 71t45.5 42.5t62.5 14q17 0 36.5 -8.5t30.5 -34.5l4 2l9 35h136l-96 -494h-135zM182 120q9 0 20 9t19 44l27 139 q2 7 3 14t1 15q0 11 -5 19.5t-20 8.5q-11 0 -18.5 -7t-9.5 -15q-3 -6 -9.5 -31.5t-13 -58t-11.5 -65t-5 -52.5q0 -18 22 -20z" unicode="à" horiz-adv-x="401"/>
<glyph glyph-name="aacute" d="M240 574l136 186l98 -54l-170 -175zM191 0l8 39h-5q-18 -25 -43 -35.5t-39 -10.5q-55 0 -75 25.5t-20 64.5q0 32 5.5 79.5t18.5 110.5q11 57 24.5 99.5t32.5 71t45.5 42.5t62.5 14q17 0 36.5 -8.5t30.5 -34.5l4 2l9 35h136l-96 -494h-135zM182 120q9 0 20 9t19 44l27 139 q2 7 3 14t1 15q0 11 -5 19.5t-20 8.5q-11 0 -18.5 -7t-9.5 -15q-3 -6 -9.5 -31.5t-13 -58t-11.5 -65t-5 -52.5q0 -18 22 -20z" unicode="á" horiz-adv-x="401"/>
<glyph glyph-name="acircumflex" d="M296 620l-146 -105l-43 47l165 159h79l101 -169l-57 -33zM191 0l8 39h-5q-18 -25 -43 -35.5t-39 -10.5q-55 0 -75 25.5t-20 64.5q0 32 5.5 79.5t18.5 110.5q11 57 24.5 99.5t32.5 71t45.5 42.5t62.5 14q17 0 36.5 -8.5t30.5 -34.5l4 2l9 35h136l-96 -494h-135zM182 120 q9 0 20 9t19 44l27 139q2 7 3 14t1 15q0 11 -5 19.5t-20 8.5q-11 0 -18.5 -7t-9.5 -15q-3 -6 -9.5 -31.5t-13 -58t-11.5 -65t-5 -52.5q0 -18 22 -20z" unicode="â" horiz-adv-x="401"/>
<glyph glyph-name="atilde" d="M243 683q15 0 29 -5.5t26 -11.5t22.5 -11.5t19.5 -5.5q6 0 11.5 0.5t12 3.5t14.5 10t19 19l58 -36q-26 -56 -55.5 -75t-56.5 -19q-17 0 -30.5 5.5t-25 12t-22 12t-22.5 5.5q-11 0 -24 -6.5t-33 -29.5l-57 42q31 54 59.5 72t54.5 18zM191 0l8 39h-5q-18 -25 -43 -35.5 t-39 -10.5q-55 0 -75 25.5t-20 64.5q0 32 5.5 79.5t18.5 110.5q11 57 24.5 99.5t32.5 71t45.5 42.5t62.5 14q17 0 36.5 -8.5t30.5 -34.5l4 2l9 35h136l-96 -494h-135zM182 120q9 0 20 9t19 44l27 139q2 7 3 14t1 15q0 11 -5 19.5t-20 8.5q-11 0 -18.5 -7t-9.5 -15 q-3 -6 -9.5 -31.5t-13 -58t-11.5 -65t-5 -52.5q0 -18 22 -20z" unicode="ã" horiz-adv-x="401"/>
<glyph glyph-name="adieresis" d="M137 547l25 130h118l-25 -130h-118zM311 547l25 130h119l-25 -130h-119zM191 0l8 39h-5q-18 -25 -43 -35.5t-39 -10.5q-55 0 -75 25.5t-20 64.5q0 32 5.5 79.5t18.5 110.5q11 57 24.5 99.5t32.5 71t45.5 42.5t62.5 14q17 0 36.5 -8.5t30.5 -34.5l4 2l9 35h136l-96 -494 h-135zM182 120q9 0 20 9t19 44l27 139q2 7 3 14t1 15q0 11 -5 19.5t-20 8.5q-11 0 -18.5 -7t-9.5 -15q-3 -6 -9.5 -31.5t-13 -58t-11.5 -65t-5 -52.5q0 -18 22 -20z" unicode="ä" horiz-adv-x="401"/>
<glyph glyph-name="aring" d="M292 650q-14 0 -25 -11t-11 -25q0 -11 8 -18t19 -7q14 0 25 10t11 26q0 11 -8 18t-19 7zM275 519q-38 0 -64.5 23t-26.5 58q0 24 8 46.5t23 39t36.5 26.5t47.5 10q38 0 64.5 -23t26.5 -58q0 -24 -7.5 -46.5t-22.5 -39t-36.5 -26.5t-48.5 -10zM191 0l8 39h-5 q-18 -25 -43 -35.5t-39 -10.5q-55 0 -75 25.5t-20 64.5q0 32 5.5 79.5t18.5 110.5q11 57 24.5 99.5t32.5 71t45.5 42.5t62.5 14q17 0 36.5 -8.5t30.5 -34.5l4 2l9 35h136l-96 -494h-135zM182 120q9 0 20 9t19 44l27 139q2 7 3 14t1 15q0 11 -5 19.5t-20 8.5q-11 0 -18.5 -7 t-9.5 -15q-3 -6 -9.5 -31.5t-13 -58t-11.5 -65t-5 -52.5q0 -18 22 -20z" unicode="å" horiz-adv-x="401"/>
<glyph glyph-name="ae" d="M450 377q-21 0 -34 -18.5t-19 -52.5h11q31 0 48 13t17 39q0 19 -23 19zM230 208h-12q-66 0 -66 -61q0 -14 8 -20t21 -6q16 0 26 12t14 31zM567 145q-21 -75 -67.5 -113t-126.5 -38q-49 0 -79.5 16t-46.5 46q-18 -22 -38 -34.5t-38.5 -18.5t-34.5 -7.5t-26 -1.5 q-56 0 -77.5 27t-21.5 71q0 34 7.5 71.5t30 68t65 50.5t111.5 20h11.5t11.5 -1l8 42q1 4 1 11q0 9 -6 14.5t-21 5.5q-10 0 -22 -6t-23 -32l-112 37q29 66 77.5 97t117.5 31q28 0 50 -6.5t36 -20.5q21 14 47.5 21.5t61.5 7.5q72 0 112.5 -33t40.5 -90q0 -49 -17 -83.5 t-45.5 -56.5t-65 -32t-76.5 -10q-9 0 -18 0.5t-18 1.5q-4 -14 -5.5 -26.5t-1.5 -20.5q1 -13 5 -22t17 -9q14 0 24.5 8.5t16.5 29.5z" unicode="æ" horiz-adv-x="625"/>
<glyph glyph-name="ccedilla" d="M349 150q-14 -69 -56 -110t-110 -45l-16 -31q43 -6 58 -28t15 -44q0 -11 -4 -28t-16 -33.5t-34.5 -28.5t-60.5 -12q-4 0 -14 0.5t-23.5 2.5t-29.5 7t-32 13l31 58q21 -10 34.5 -12.5t24.5 -2.5q17 0 27.5 9.5t10.5 22.5t-9 17t-24 4l-30 23l34 66q-52 11 -74.5 42.5 t-24.5 69.5q-1 8 -1 17q0 20 4 51t9 67q7 45 19 91.5t28 76.5q20 39 59.5 64.5t99.5 25.5q37 0 66.5 -10.5t48 -31t24 -43t5.5 -39.5t-4 -37l-136 -15q2 13 2 22t-3.5 18t-14.5 9q-17 0 -27 -20q-5 -8 -12.5 -36.5t-15.5 -70.5t-11.5 -67.5t-3.5 -37.5q2 -22 20 -22 q11 0 20.5 10t14.5 35z" unicode="ç" horiz-adv-x="381"/>
<glyph glyph-name="egrave" d="M266 537l-129 194l97 52l97 -212zM229 377q-19 0 -28.5 -18.5t-15.5 -52.5q37 0 51.5 12t14.5 38q0 8 -5.5 14.5t-16.5 6.5zM352 145q-8 -33 -21 -60.5t-33.5 -48t-50 -31.5t-71.5 -11q-45 0 -74.5 12.5t-46.5 34t-23.5 49.5t-6.5 58q0 26 3 52t8 50q8 45 20 90 t33.5 81.5t55.5 59t87 22.5q72 0 112.5 -33t40.5 -90q0 -50 -15.5 -84.5t-42 -56t-61.5 -31t-74 -9.5h-12.5t-13.5 1q-4 -14 -5.5 -29.5t-1.5 -23.5q1 -25 20 -25q14 0 22.5 8.5t14.5 29.5z" unicode="è" horiz-adv-x="408"/>
<glyph glyph-name="eacute" d="M209 574l136 186l98 -54l-170 -175zM229 377q-19 0 -28.5 -18.5t-15.5 -52.5q37 0 51.5 12t14.5 38q0 8 -5.5 14.5t-16.5 6.5zM352 145q-8 -33 -21 -60.5t-33.5 -48t-50 -31.5t-71.5 -11q-45 0 -74.5 12.5t-46.5 34t-23.5 49.5t-6.5 58q0 26 3 52t8 50q8 45 20 90 t33.5 81.5t55.5 59t87 22.5q72 0 112.5 -33t40.5 -90q0 -50 -15.5 -84.5t-42 -56t-61.5 -31t-74 -9.5h-12.5t-13.5 1q-4 -14 -5.5 -29.5t-1.5 -23.5q1 -25 20 -25q14 0 22.5 8.5t14.5 29.5z" unicode="é" horiz-adv-x="408"/>
<glyph glyph-name="ecircumflex" d="M276 620l-146 -105l-43 47l165 159h79l101 -169l-57 -33zM229 377q-19 0 -28.5 -18.5t-15.5 -52.5q37 0 51.5 12t14.5 38q0 8 -5.5 14.5t-16.5 6.5zM352 145q-8 -33 -21 -60.5t-33.5 -48t-50 -31.5t-71.5 -11q-45 0 -74.5 12.5t-46.5 34t-23.5 49.5t-6.5 58q0 26 3 52 t8 50q8 45 20 90t33.5 81.5t55.5 59t87 22.5q72 0 112.5 -33t40.5 -90q0 -50 -15.5 -84.5t-42 -56t-61.5 -31t-74 -9.5h-12.5t-13.5 1q-4 -14 -5.5 -29.5t-1.5 -23.5q1 -25 20 -25q14 0 22.5 8.5t14.5 29.5z" unicode="ê" horiz-adv-x="408"/>
<glyph glyph-name="edieresis" d="M117 547l25 130h118l-25 -130h-118zM291 547l25 130h119l-25 -130h-119zM229 377q-19 0 -28.5 -18.5t-15.5 -52.5q37 0 51.5 12t14.5 38q0 8 -5.5 14.5t-16.5 6.5zM352 145q-8 -33 -21 -60.5t-33.5 -48t-50 -31.5t-71.5 -11q-45 0 -74.5 12.5t-46.5 34t-23.5 49.5 t-6.5 58q0 26 3 52t8 50q8 45 20 90t33.5 81.5t55.5 59t87 22.5q72 0 112.5 -33t40.5 -90q0 -50 -15.5 -84.5t-42 -56t-61.5 -31t-74 -9.5h-12.5t-13.5 1q-4 -14 -5.5 -29.5t-1.5 -23.5q1 -25 20 -25q14 0 22.5 8.5t14.5 29.5z" unicode="ë" horiz-adv-x="408"/>
<glyph glyph-name="igrave" d="M214 537l-129 194l97 52l97 -212zM74 0l96 494h137l-96 -494h-137z" unicode="ì" horiz-adv-x="306"/>
<glyph glyph-name="iacute" d="M155 574l136 186l98 -54l-170 -175zM5 0l96 494h137l-96 -494h-137z" unicode="í" horiz-adv-x="270"/>
<glyph glyph-name="icircumflex" d="M241 620l-146 -105l-43 47l165 159h79l101 -169l-57 -33zM45 0l96 494h137l-96 -494h-137z" unicode="î" horiz-adv-x="302"/>
<glyph glyph-name="idieresis" d="M75 547l25 130h118l-25 -130h-118zM249 547l25 130h119l-25 -130h-119zM45 0l96 494h137l-96 -494h-137z" unicode="ï" horiz-adv-x="302"/>
<glyph glyph-name="eth" d="M228 347q-11 0 -18 -5t-13 -17.5t-11 -34t-11 -54.5q-2 -9 -4 -20t-4.5 -23t-4 -23.5t-1.5 -19.5q0 -12 4.5 -20t18.5 -8t20.5 8.5t8.5 13.5q2 7 9 34t14 58q6 27 10 51t4 37q0 10 -6 16.5t-16 6.5zM473 659l-64 -42q4 -14 6.5 -30.5t2.5 -38.5q0 -17 -1.5 -43.5t-6 -65 t-13 -90.5t-21.5 -120q-10 -52 -25 -96.5t-39 -76.5t-55.5 -47.5t-70.5 -15.5h-14q-42 2 -70.5 15.5t-45.5 32.5t-24.5 42t-7.5 45q0 24 5.5 60t14 74t19 72.5t21.5 57.5q20 42 52 63t74 21q6 0 17.5 -1.5t24.5 -6.5t25 -13.5t19 -21.5q4 20 6 39.5t2 36.5v20t-1 19l-52 -34 l-25 43l61 40q-11 16 -32.5 24.5t-60.5 13.5l23 97q62 -4 100 -21t55 -34q3 -4 6.5 -7.5t6.5 -8.5l62 41z" unicode="ð" horiz-adv-x="400"/>
<glyph glyph-name="ntilde" d="M233 683q15 0 29 -5.5t26 -11.5t22.5 -11.5t19.5 -5.5q6 0 11.5 0.5t12 3.5t14.5 10t19 19l58 -36q-26 -56 -55.5 -75t-56.5 -19q-17 0 -30.5 5.5t-25 12t-22 12t-22.5 5.5q-11 0 -24 -6.5t-33 -29.5l-57 42q31 54 59.5 72t54.5 18zM229 447q17 24 45.5 39t51.5 15 q27 0 43.5 -6.5t25.5 -18t12 -26.5t3 -32q0 -11 -2 -23.5t-4 -24.5l-71 -370h-137l65 335q1 5 1 13q0 13 -6 18t-15 5q-17 0 -27 -14t-14 -33l-61 -324h-137l96 495h137l-11 -47z" unicode="ñ" horiz-adv-x="413"/>
<glyph glyph-name="ograve" d="M236 376q-11 0 -18 -4t-12.5 -16t-11 -34t-12.5 -57l-14 -79q-2 -11 -3 -19.5t-1 -16.5q0 -12 4.5 -20t18.5 -8q11 0 19 7t10 15q2 4 6 18.5t8.5 35t9 43.5t8.5 45t6.5 40t2.5 27q0 10 -5.5 16.5t-15.5 6.5zM241 537l-129 194l97 52l97 -212zM242 503q39 0 67.5 -11 t47 -29.5t27 -42t8.5 -48.5q0 -16 -1.5 -35.5t-4.5 -39.5l-6 -40t-6 -36q-12 -59 -26 -102t-36 -71t-54.5 -41.5t-80.5 -13.5q-41 0 -69.5 12.5t-46.5 32t-26 43.5t-8 47q0 27 3.5 56t9.5 61q5 24 10.5 49t11.5 48.5t13.5 44t15.5 34.5q23 41 62.5 61.5t88.5 20.5z" unicode="ò" horiz-adv-x="401"/>
<glyph glyph-name="oacute" d="M236 376q-11 0 -18 -4t-12.5 -16t-11 -34t-12.5 -57l-14 -79q-2 -11 -3 -19.5t-1 -16.5q0 -12 4.5 -20t18.5 -8q11 0 19 7t10 15q2 4 6 18.5t8.5 35t9 43.5t8.5 45t6.5 40t2.5 27q0 10 -5.5 16.5t-15.5 6.5zM200 574l136 186l98 -54l-170 -175zM242 503q39 0 67.5 -11 t47 -29.5t27 -42t8.5 -48.5q0 -16 -1.5 -35.5t-4.5 -39.5l-6 -40t-6 -36q-12 -59 -26 -102t-36 -71t-54.5 -41.5t-80.5 -13.5q-41 0 -69.5 12.5t-46.5 32t-26 43.5t-8 47q0 27 3.5 56t9.5 61q5 24 10.5 49t11.5 48.5t13.5 44t15.5 34.5q23 41 62.5 61.5t88.5 20.5z" unicode="ó" horiz-adv-x="401"/>
<glyph glyph-name="ocircumflex" d="M236 376q-11 0 -18 -4t-12.5 -16t-11 -34t-12.5 -57l-14 -79q-2 -11 -3 -19.5t-1 -16.5q0 -12 4.5 -20t18.5 -8q11 0 19 7t10 15q2 4 6 18.5t8.5 35t9 43.5t8.5 45t6.5 40t2.5 27q0 10 -5.5 16.5t-15.5 6.5zM274 620l-146 -105l-43 47l165 159h79l101 -169l-57 -33z M242 503q39 0 67.5 -11t47 -29.5t27 -42t8.5 -48.5q0 -16 -1.5 -35.5t-4.5 -39.5l-6 -40t-6 -36q-12 -59 -26 -102t-36 -71t-54.5 -41.5t-80.5 -13.5q-41 0 -69.5 12.5t-46.5 32t-26 43.5t-8 47q0 27 3.5 56t9.5 61q5 24 10.5 49t11.5 48.5t13.5 44t15.5 34.5 q23 41 62.5 61.5t88.5 20.5z" unicode="ô" horiz-adv-x="401"/>
<glyph glyph-name="otilde" d="M236 376q-11 0 -18 -4t-12.5 -16t-11 -34t-12.5 -57l-14 -79q-2 -11 -3 -19.5t-1 -16.5q0 -12 4.5 -20t18.5 -8q11 0 19 7t10 15q2 4 6 18.5t8.5 35t9 43.5t8.5 45t6.5 40t2.5 27q0 10 -5.5 16.5t-15.5 6.5zM217 683q15 0 29 -5.5t26 -11.5t22.5 -11.5t19.5 -5.5 q6 0 11.5 0.5t12 3.5t14.5 10t19 19l58 -36q-26 -56 -55.5 -75t-56.5 -19q-17 0 -30.5 5.5t-25 12t-22 12t-22.5 5.5q-11 0 -24 -6.5t-33 -29.5l-57 42q31 54 59.5 72t54.5 18zM242 503q39 0 67.5 -11t47 -29.5t27 -42t8.5 -48.5q0 -16 -1.5 -35.5t-4.5 -39.5l-6 -40t-6 -36 q-12 -59 -26 -102t-36 -71t-54.5 -41.5t-80.5 -13.5q-41 0 -69.5 12.5t-46.5 32t-26 43.5t-8 47q0 27 3.5 56t9.5 61q5 24 10.5 49t11.5 48.5t13.5 44t15.5 34.5q23 41 62.5 61.5t88.5 20.5z" unicode="õ" horiz-adv-x="401"/>
<glyph glyph-name="odieresis" d="M236 376q-11 0 -18 -4t-12.5 -16t-11 -34t-12.5 -57l-14 -79q-2 -11 -3 -19.5t-1 -16.5q0 -12 4.5 -20t18.5 -8q11 0 19 7t10 15q2 4 6 18.5t8.5 35t9 43.5t8.5 45t6.5 40t2.5 27q0 10 -5.5 16.5t-15.5 6.5zM108 547l25 130h118l-25 -130h-118zM282 547l25 130h119 l-25 -130h-119zM242 503q39 0 67.5 -11t47 -29.5t27 -42t8.5 -48.5q0 -16 -1.5 -35.5t-4.5 -39.5l-6 -40t-6 -36q-12 -59 -26 -102t-36 -71t-54.5 -41.5t-80.5 -13.5q-41 0 -69.5 12.5t-46.5 32t-26 43.5t-8 47q0 27 3.5 56t9.5 61q5 24 10.5 49t11.5 48.5t13.5 44 t15.5 34.5q23 41 62.5 61.5t88.5 20.5z" unicode="ö" horiz-adv-x="401"/>
<glyph glyph-name="divide" d="M434 344l-20 -107h-389l20 107h389zM214 196q27 0 44 -17.5t17 -43.5q0 -17 -8 -33.5t-20.5 -29t-29 -20t-33.5 -7.5q-27 0 -43.5 17.5t-16.5 43.5q0 17 7.5 33.5t20 29t29 20t33.5 7.5zM280 539q27 0 44.5 -17.5t17.5 -43.5q0 -17 -8 -33t-20.5 -28.5t-29 -20 t-33.5 -7.5q-27 0 -43.5 17.5t-16.5 43.5q0 18 7.5 34t20 28t28.5 19.5t33 7.5z" unicode="÷"/>
<glyph glyph-name="oslash" d="M236 376q-11 0 -18 -4t-12.5 -16t-11 -34t-12.5 -57l-6 -36l81 127q-1 8 -6.5 14t-14.5 6zM216 144q2 4 5.5 18t8 34.5t9.5 43.5t9 45l-84 -131v-4q0 -12 4.5 -20t18.5 -8q11 0 19 7t10 15zM242 503q29 0 52.5 -6.5t40.5 -17.5l41 63l26 -16l-43 -67q17 -18 25 -41t8 -46 q0 -16 -1.5 -35.5t-4.5 -39.5l-6 -40t-6 -36q-12 -59 -26 -102t-36 -71t-54.5 -41.5t-80.5 -13.5q-32 0 -56.5 7.5t-41.5 20.5l-33 -52l-26 16l36 57q-15 19 -22 41.5t-7 44.5q0 27 3.5 56t9.5 61q5 24 10.5 49t11.5 48.5t13.5 44t15.5 34.5q23 41 62.5 61.5t88.5 20.5z" unicode="ø" horiz-adv-x="401"/>
<glyph glyph-name="ugrave" d="M250 537l-129 194l97 52l97 -212zM203 48q-17 -24 -45.5 -39t-51.5 -15q-36 0 -54.5 11.5t-24.5 28.5t-6 34q0 5 1 19t6 38l71 370h137l-65 -335q-3 -14 1.5 -25t18.5 -11q12 0 24.5 14t16.5 33l61 324h137l-96 -495h-137l11 47z" unicode="ù" horiz-adv-x="413"/>
<glyph glyph-name="uacute" d="M234 574l136 186l98 -54l-170 -175zM203 48q-17 -24 -45.5 -39t-51.5 -15q-36 0 -54.5 11.5t-24.5 28.5t-6 34q0 5 1 19t6 38l71 370h137l-65 -335q-3 -14 1.5 -25t18.5 -11q12 0 24.5 14t16.5 33l61 324h137l-96 -495h-137l11 47z" unicode="ú" horiz-adv-x="413"/>
<glyph glyph-name="ucircumflex" d="M284 620l-146 -105l-43 47l165 159h79l101 -169l-57 -33zM203 48q-17 -24 -45.5 -39t-51.5 -15q-36 0 -54.5 11.5t-24.5 28.5t-6 34q0 5 1 19t6 38l71 370h137l-65 -335q-3 -14 1.5 -25t18.5 -11q12 0 24.5 14t16.5 33l61 324h137l-96 -495h-137l11 47z" unicode="û" horiz-adv-x="413"/>
<glyph glyph-name="udieresis" d="M126 547l25 130h118l-25 -130h-118zM300 547l25 130h119l-25 -130h-119zM203 48q-17 -24 -45.5 -39t-51.5 -15q-36 0 -54.5 11.5t-24.5 28.5t-6 34q0 5 1 19t6 38l71 370h137l-65 -335q-3 -14 1.5 -25t18.5 -11q12 0 24.5 14t16.5 33l61 324h137l-96 -495h-137l11 47z " unicode="ü" horiz-adv-x="413"/>
<glyph glyph-name="yacute" d="M205 574l136 186l98 -54l-170 -175zM179 189q29 66 53 139.5t50 165.5h144q-52 -150 -109 -281.5t-113 -234.5q-21 -39 -46.5 -73t-56.5 -58t-66.5 -36.5t-75.5 -12.5h-12l-2 118q46 4 75 24t58 71l-27 483h143l-5 -155q-1 -12 -2 -31.5t-3 -40.5t-4.5 -42t-5.5 -36h5z " unicode="ý" horiz-adv-x="383"/>
<glyph glyph-name="thorn" d="M185 123q10 0 18 6.5t12 16.5q3 9 7.5 26.5t8.5 38.5t8.5 44t7.5 42.5t5 33t2 16.5v3q0 8 -5.5 13.5t-15.5 5.5q-12 0 -19 -5t-12 -16.5t-9 -31t-10 -49.5l-2 -11q-7 -38 -12.5 -67t-5.5 -42q0 -11 5.5 -17.5t16.5 -6.5zM216 -8q-13 0 -37 6.5t-37 23.5h-5l-44 -215h-137 l175 888h135l-48 -236l4 -2q9 13 20.5 22t23.5 13.5t23.5 6.5t20.5 2q46 0 69 -22.5t23 -76.5q0 -8 -0.5 -16.5t-1.5 -18.5q-2 -15 -7 -52t-13 -80t-18 -85t-21 -67q-6 -14 -14.5 -29.5t-23 -29.5t-35.5 -23t-52 -9z" unicode="þ" horiz-adv-x="401"/>
<glyph glyph-name="afii10023" d="M154 729l25 130h118l-25 -130h-118zM328 729l25 130h119l-25 -130h-119zM2 0l135 696h319l-25 -130h-183l-29 -146h160l-26 -133h-160l-29 -157h183l-26 -130h-319z" unicode="Ё" horiz-adv-x="393"/>
<glyph glyph-name="afii10051" d="M307 344q-9 0 -23 -5t-26 -14l-63 -325h-133l110 566h-94l25 130h361l-25 -130h-134l-26 -132h3q24 15 49 24t56 9q59 0 76 -30t17 -65q0 -17 -3 -37l-36 -211q-7 -40 -20 -70t-34.5 -50t-52.5 -30t-74 -10h-28l20 108q23 1 33 10t15 33l36 187q2 9 2 15q0 11 -7 19 t-24 8z" unicode="Ђ" horiz-adv-x="496"/>
<glyph glyph-name="afii10052" d="M256 786l193 130l58 -93l-215 -105zM257 566l-110 -566h-136l135 696h319l-25 -130h-183z" unicode="Ѓ" horiz-adv-x="394"/>
<glyph glyph-name="afii10053" d="M310 702q47 0 79.5 -14t51.5 -38.5t23.5 -48t4.5 -39.5q0 -19 -4 -39l-135 -23q2 10 2 20q0 18 -8.5 35t-29.5 17q-14 0 -23 -5.5t-15.5 -13.5t-10 -17.5t-4.5 -16.5l-20 -101h116l-25 -132h-117l-23 -122q-1 -7 -1 -14t3 -13t10.5 -9.5t20.5 -3.5q43 0 60 72l131 -18 q-6 -41 -20.5 -74.5t-39 -58t-59 -38t-80.5 -13.5q-94 0 -128 41t-34 94q0 23 5 49l66 341q8 41 24.5 75t42 58t59.5 37t78 13z" unicode="Є" horiz-adv-x="427"/>
<glyph glyph-name="afii10054" d="M169 191q-5 -17 -5 -30q0 -14 7.5 -23.5t28.5 -9.5q20 0 33 10.5t20.5 27t10.5 36.5t3 39q0 20 -11.5 30.5t-41.5 24.5q-36 16 -60 33.5t-37.5 36.5t-19 39t-5.5 42q0 55 13.5 102t40.5 81t67.5 53t94.5 19q43 0 73 -10t48.5 -28t26.5 -41.5t8 -50.5q0 -31 -9 -64 l-135 -8q2 8 3 16t1 16q0 14 -7 24.5t-29 10.5q-17 0 -28 -9.5t-17.5 -23t-9 -28t-2.5 -25.5q0 -17 13 -31t52 -31q32 -14 53 -28.5t33 -31t17 -35.5t5 -41q0 -57 -10.5 -109.5t-36 -92.5t-68 -63.5t-105.5 -23.5q-42 0 -72 10.5t-49.5 28.5t-28.5 42.5t-9 53.5q0 24 6 50z " unicode="Ѕ" horiz-adv-x="427"/>
<glyph glyph-name="afii10055" d="M13 0l135 696h136l-135 -696h-136z" unicode="І" horiz-adv-x="242"/>
<glyph glyph-name="afii10056" d="M75 726l25 130h118l-25 -130h-118zM249 726l25 130h119l-25 -130h-119zM13 0l135 696h136l-135 -696h-136z" unicode="Ї" horiz-adv-x="242"/>
<glyph glyph-name="afii10057" d="M404 696l-103 -527q-16 -82 -63 -128.5t-131 -46.5q-47 0 -86 22t-63 70l108 78q10 -19 24 -29t25 -10q26 0 37.5 16t14.5 30l102 525h135z" unicode="Ј" horiz-adv-x="360"/>
<glyph glyph-name="afii10058" d="M419 130q16 0 32.5 8.5t29 24t20.5 39t8 53.5q0 36 -17.5 45.5t-39.5 9.5h-23l-35 -180h25zM342 566h-63l-52 -263q-14 -72 -32 -126.5t-43.5 -93.5t-60.5 -65t-83 -41l-42 101q36 18 59.5 40t39.5 49t26.5 61t18.5 76l76 392h318l-50 -255h16q43 0 75.5 -11.5t54.5 -32 t33.5 -48t11.5 -59.5q0 -66 -17 -120t-48 -91.5t-74 -58t-95 -20.5h-178z" unicode="Љ" horiz-adv-x="649"/>
<glyph glyph-name="afii10059" d="M419 130q33 0 60.5 28.5t27.5 88.5q0 36 -17.5 45.5t-39.5 9.5h-23l-33 -172h25zM290 303h-85l-58 -303h-136l135 696h136l-51 -261h85l51 261h136l-51 -263h27q43 0 74 -11.5t51 -32t29.5 -48t9.5 -59.5q0 -66 -16.5 -118.5t-47 -89t-73.5 -55.5t-95 -19h-178z" unicode="Њ" horiz-adv-x="649"/>
<glyph glyph-name="afii10060" d="M279 0l59 302q2 9 2 15q0 11 -7 19t-24 8q-9 0 -23 -5t-26 -14l-63 -325h-133l110 566h-94l25 130h361l-25 -130h-134l-26 -132h3q24 15 49 24t56 9q59 0 76 -30t17 -65q0 -17 -3 -37l-62 -335h-138z" unicode="Ћ" horiz-adv-x="494"/>
<glyph glyph-name="afii10061" d="M265 786l193 130l58 -93l-215 -105zM10 0l135 697h133l-56 -286h14q23 0 41.5 23.5t35.5 66.5l73 193h133l-82 -212q-20 -51 -50 -81t-61 -41q35 -14 52.5 -41.5t17.5 -78.5v-240h-127l2 199v7q0 35 -10 60t-44 25h-18l-56 -291h-133z" unicode="Ќ" horiz-adv-x="446"/>
<glyph glyph-name="afii10062" d="M256 892q-1 -3 -1 -6.5v-6.5q0 -31 16 -47.5t39 -16.5q15 0 28 7.5t23 19t17 25t10 25.5h107q-9 -30 -24 -59t-38 -51.5t-55 -36.5t-74 -14q-45 0 -74.5 14.5t-46 37.5t-21.5 47t-5 43q0 10 1 19h98zM243 363l127 333h134l-241 -541q-25 -56 -49 -88t-48.5 -49 t-49.5 -22.5t-52 -6.5h-40l22 110h12q27 0 43.5 12t30.5 35l14 28l-50 521h126l16 -332h5z" unicode="Ў" horiz-adv-x="406"/>
<glyph glyph-name="afii10145" d="M489 696l-135 -696h-121l-30 -148h-105l30 148h-117l135 696h136l-109 -561h72l109 561h135z" unicode="Џ" horiz-adv-x="464"/>
<glyph glyph-name="afii10017" d="M240 375l-35 -111h63l8 111l13 141h-6zM263 136h-102l-47 -136h-145l267 696h166l-2 -696h-142z" unicode="А" horiz-adv-x="449"/>
<glyph glyph-name="afii10018" d="M200 130q33 0 60 31t27 96q0 18 -5 28.5t-13 16t-18.5 7t-21.5 1.5h-22l-35 -180h28zM11 0l135 696h302l-25 -130h-166l-25 -125h33q82 0 120 -36t38 -107q0 -61 -16.5 -115.5t-46.5 -95t-72.5 -64t-95.5 -23.5h-181z" unicode="Б" horiz-adv-x="428"/>
<glyph glyph-name="afii10019" d="M348 364q34 -12 46.5 -39t12.5 -62q0 -59 -15 -107.5t-43 -83t-68 -53.5t-90 -19h-180l135 696h147q162 0 162 -146q0 -77 -27.5 -121t-78.5 -60zM205 302l-35 -174h24q20 0 35 9.5t25.5 26t15.5 37.5t5 45q0 30 -14.5 43t-33.5 13h-22zM257 566l-27 -138h17 q36 0 55.5 25t19.5 68q0 28 -13 36.5t-38 8.5h-14z" unicode="В" horiz-adv-x="446"/>
<glyph glyph-name="afii10020" d="M257 566l-110 -566h-136l135 696h319l-25 -130h-183z" unicode="Г" horiz-adv-x="394"/>
<glyph glyph-name="afii10021" d="M234 277q-10 -45 -23.5 -84.5t-31.5 -62.5h120l86 436h-85zM80 0l-26 -132h-109l47 249l44 11q18 12 30 25.5t20.5 30t14.5 37t12 46.5l98 429h329l-111 -566h52l-50 -262h-110l26 132h-267z" unicode="Д" horiz-adv-x="526"/>
<glyph glyph-name="afii10022" d="M11 0l135 696h319l-25 -130h-183l-29 -146h160l-26 -133h-160l-29 -157h183l-26 -130h-319z" unicode="Е" horiz-adv-x="394"/>
<glyph glyph-name="afii10024" d="M223 0l56 291h-18q-17 0 -29.5 -7t-22 -19t-17 -29t-15.5 -37l-74 -199h-133l92 240q20 51 48 78.5t68 41.5q-26 11 -44.5 40.5t-18.5 76.5v5v212h126l-1 -193q0 -43 12.5 -66.5t35.5 -23.5h14l56 286h133l-56 -286h14q23 0 43 23.5t36 66.5l74 193h130l-82 -212 q-20 -51 -50 -81t-61 -41q35 -14 52.5 -41.5t17.5 -78.5v-240h-130l2 199q0 20 -1.5 37t-6.5 29t-15.5 19t-27.5 7h-18l-56 -291h-133z" unicode="Ж" horiz-adv-x="659"/>
<glyph glyph-name="afii10025" d="M274 702q76 0 116.5 -40.5t40.5 -105.5q0 -29 -3.5 -58t-14 -55t-28.5 -47.5t-46 -34.5v-2q20 -11 30 -34t10 -56q0 -131 -60 -203t-166 -72q-75 0 -113.5 37.5t-38.5 100.5q0 17 3 37l140 27q-1 -7 -1.5 -13.5t-0.5 -11.5q0 -23 8.5 -32.5t25.5 -9.5q16 0 28 11.5 t19.5 30t11 41.5t3.5 46q0 28 -12 36.5t-32 8.5h-28l22 114h40q29 0 46 29.5t17 74.5q0 16 -7 31t-27 15q-22 0 -37.5 -18t-22.5 -49l-128 29q20 84 71.5 128.5t133.5 44.5z" unicode="З" horiz-adv-x="398"/>
<glyph glyph-name="afii10026" d="M318 368l-180 -368h-132l134 696h134l-72 -371h2l179 371h135l-135 -696h-135l72 368h-2z" unicode="И" horiz-adv-x="481"/>
<glyph glyph-name="afii10027" d="M318 368l-180 -368h-132l134 696h134l-72 -371h2l179 371h135l-135 -696h-135l72 368h-2zM301 888q-1 -3 -1 -6.5v-6.5q0 -31 16 -47.5t39 -16.5q15 0 28 7.5t23 19t17 25t10 25.5h107q-9 -30 -24 -59t-38 -51.5t-55 -36.5t-74 -14q-45 0 -74.5 14.5t-46 37.5t-21.5 47 t-5 43q0 10 1 19h98z" unicode="Й" horiz-adv-x="481"/>
<glyph glyph-name="afii10028" d="M10 0l135 697h133l-56 -286h14q23 0 41.5 23.5t35.5 66.5l73 193h133l-82 -212q-20 -51 -50 -81t-61 -41q35 -14 52.5 -41.5t17.5 -78.5v-240h-127l2 199v7q0 35 -10 60t-44 25h-18l-56 -291h-133z" unicode="К" horiz-adv-x="446"/>
<glyph glyph-name="afii10029" d="M506 696l-135 -696h-132l110 566h-70l-52 -263q-14 -72 -32 -126.5t-43.5 -93.5t-60.5 -65t-83 -41l-42 101q36 18 59.5 40t39.5 49t26.5 61t18.5 76l76 392h320z" unicode="Л" horiz-adv-x="461"/>
<glyph glyph-name="afii10030" d="M232 136l-12 89l-12 103h-5l-63 -328h-135l135 696h125l30 -197l24 -134h6l71 137l107 194h129l-135 -696h-136l63 325h-4l-54 -108l-43 -81h-91z" unicode="М" horiz-adv-x="582"/>
<glyph glyph-name="afii10031" d="M234 0l55 288h-87l-55 -288h-136l135 696h136l-54 -276h87l54 276h135l-135 -696h-135z" unicode="Н" horiz-adv-x="459"/>
<glyph glyph-name="afii10032" d="M296 702q75 0 120 -38t45 -110q0 -26 -6 -54l-62 -330q-15 -82 -60 -129t-133 -47q-79 0 -120.5 41t-41.5 109q0 11 1.5 23t3.5 24l64 336q9 45 23.5 77.5t37 54.5t54 32.5t74.5 10.5zM288 567q-17 0 -29 -10t-17 -33l-66 -342q-1 -5 -1.5 -8.5t-0.5 -7.5q0 -37 35 -37 q17 0 29 9.5t17 33.5l66 340q2 5 2 9.5v9.5q0 19 -10 27.5t-25 8.5z" unicode="О" horiz-adv-x="445"/>
<glyph glyph-name="afii10033" d="M219 0l109 563h-72l-109 -563h-136l135 696h343l-135 -696h-135z" unicode="П" horiz-adv-x="446"/>
<glyph glyph-name="afii10034" d="M257 566l-35 -180h23q13 0 29 4.5t30 17t23 35.5t9 60q0 35 -15.5 49t-42.5 14h-21zM301 696q38 0 69 -8t53 -26.5t34 -50t12 -77.5q0 -136 -65 -207.5t-176 -71.5h-32l-49 -255h-136l135 696h155z" unicode="Р" horiz-adv-x="428"/>
<glyph glyph-name="afii10035" d="M310 702q81 0 120 -40t39 -100q0 -22 -4 -39l-135 -23q1 5 1.5 9.5t0.5 9.5q0 23 -10 38t-28 15q-14 0 -23 -5.5t-15.5 -13.5t-10 -17.5t-4.5 -16.5l-69 -355q-1 -4 -1 -12q0 -11 6.5 -19.5t27.5 -8.5q43 0 60 72l131 -18q-6 -41 -20.5 -74.5t-38.5 -58t-58.5 -38 t-81.5 -13.5q-80 0 -121 35t-41 101q0 20 5 48l66 341q8 41 23 75t39 58t59 37t83 13z" unicode="С" horiz-adv-x="427"/>
<glyph glyph-name="afii10036" d="M317 566l-110 -566h-136l110 566h-107l25 130h350l-25 -130h-107z" unicode="Т" horiz-adv-x="360"/>
<glyph glyph-name="afii10037" d="M243 363l127 333h134l-241 -541q-25 -56 -49 -88t-48.5 -49t-49.5 -22.5t-52 -6.5h-40l22 110h12q27 0 43.5 12t30.5 35l14 28l-50 521h126l16 -332h5z" unicode="У" horiz-adv-x="406"/>
<glyph glyph-name="afii10038" d="M577 253q-17 -89 -74 -141t-158 -54l-11 -58h-135l12 62q-36 1 -68.5 16t-54.5 42t-28.5 55.5t-6.5 49.5q0 23 5 49l38 198q17 90 78.5 140.5t153.5 51.5l6 32h135l-6 -32q42 0 74.5 -14t53 -39.5t26 -51.5t5.5 -44q0 -22 -5 -46zM487 470q2 8 2 16q0 21 -15.5 33 t-36.5 13l-67 -343h6q24 0 43.5 16t24.5 45zM302 532q-26 -1 -47 -16.5t-27 -45.5l-43 -220q-2 -8 -2 -15q0 -19 14 -32t38 -14z" unicode="Ф" horiz-adv-x="613"/>
<glyph glyph-name="afii10039" d="M229 194l-98 -194h-168l214 363l-69 333h155l19 -162h6l80 162h170l-203 -333l78 -363h-156l-24 194h-4z" unicode="Х" horiz-adv-x="450"/>
<glyph glyph-name="afii10040" d="M489 696l-110 -566h63l-50 -261h-109l25 131h-297l135 696h136l-110 -566h72l110 566h135z" unicode="Ц" horiz-adv-x="464"/>
<glyph glyph-name="afii10041" d="M269 696l-49 -253q-3 -17 -2 -27.5t5.5 -16.5t12 -8t16.5 -2t19.5 3.5t21.5 8.5l58 295h133l-135 -696h-133l52 270q-39 -9 -70 -9q-74 0 -98 30t-24 72q0 24 6 55l54 278h133z" unicode="Ч" horiz-adv-x="441"/>
<glyph glyph-name="afii10042" d="M685 696l-135 -696h-539l135 696h133l-110 -567h70l110 567h133l-110 -567h71l110 567h132z" unicode="Ш" horiz-adv-x="640"/>
<glyph glyph-name="afii10043" d="M575 130h54l-50 -262h-109l26 132h-484l135 696h133l-111 -566h70l111 566h133l-111 -566h71l111 566h132z" unicode="Щ" horiz-adv-x="651"/>
<glyph glyph-name="afii10044" d="M300 130q16 0 32.5 8.5t29 24t20.5 39t8 53.5q0 36 -17.5 45.5t-39.5 9.5h-23l-35 -180h25zM114 0l110 566h-144l26 130h279l-50 -255h16q43 0 75.5 -11.5t54.5 -32t33.5 -48t11.5 -59.5q0 -66 -17 -120t-48 -91.5t-74 -58t-95 -20.5h-178z" unicode="Ъ" horiz-adv-x="537"/>
<glyph glyph-name="afii10045" d="M197 130q16 0 32.5 8.5t29 24t20.5 39t8 53.5q0 36 -17.5 45.5t-39.5 9.5h-23l-35 -180h25zM11 0l135 696h136l-50 -255h16q43 0 75.5 -11.5t54.5 -32t33.5 -48t11.5 -59.5q0 -66 -17 -120t-48 -91.5t-74 -58t-95 -20.5h-178zM417 0l135 696h136l-135 -696h-136z" unicode="Ы" horiz-adv-x="643"/>
<glyph glyph-name="afii10046" d="M197 130q16 0 32.5 8.5t29 24t20.5 39t8 53.5q0 36 -17.5 45.5t-39.5 9.5h-23l-35 -180h25zM11 0l135 696h136l-50 -255h16q43 0 75.5 -11.5t54.5 -32t33.5 -48t11.5 -59.5q0 -66 -17 -120t-48 -91.5t-74 -58t-95 -20.5h-178z" unicode="Ь" horiz-adv-x="428"/>
<glyph glyph-name="afii10047" d="M168 418h117l19 101q1 7 1.5 16.5t-3 17.5t-12 13.5t-23.5 5.5q-21 0 -36.5 -18.5t-21.5 -53.5l-126 23q6 40 21 73t39.5 56.5t58 36.5t76.5 13q48 0 81.5 -14t53.5 -39.5t24.5 -50.5t4.5 -41q0 -21 -5 -45l-63 -329q-9 -44 -23 -79t-37 -59.5t-57 -37.5t-82 -13 q-42 0 -74 13.5t-52 37.5t-25 49t-5 42q0 20 4 42l133 18q-3 -15 -3 -27q0 -16 7.5 -30.5t27.5 -14.5q40 0 49 50l22 112h-117z" unicode="Э" horiz-adv-x="411"/>
<glyph glyph-name="afii10048" d="M508 527q2 7 2 13q0 13 -9 21.5t-25 8.5t-28 -10t-17 -33l-70 -360q-2 -7 -2 -13q0 -14 10 -22t26 -8t27 9.5t16 33.5zM569 170q-18 -89 -61.5 -132.5t-131.5 -43.5q-83 0 -114.5 39t-31.5 91q0 24 5 52l21 112h-60l-55 -288h-136l135 696h136l-54 -276h60l21 105 q16 84 60.5 129.5t130.5 45.5q84 0 114 -39.5t30 -91.5q0 -24 -5 -53z" unicode="Ю" horiz-adv-x="624"/>
<glyph glyph-name="afii10049" d="M336 566h-25q-39 0 -66 -22t-27 -73q0 -35 21 -47t46 -12h21zM-10 0l70 224q5 16 13 32t18.5 30t23.5 25t29 16q-29 18 -43 50t-14 73q0 67 19.5 114t51 76t71 42.5t80.5 13.5h181l-131 -696h-133l55 284h-16q-28 0 -47.5 -26t-32.5 -66l-60 -192h-135z" unicode="Я" horiz-adv-x="445"/>
<glyph glyph-name="afii10065" d="M191 0l8 39h-5q-18 -25 -43 -35.5t-39 -10.5q-55 0 -75 25.5t-20 64.5q0 32 5.5 79.5t18.5 110.5q11 57 24.5 99.5t32.5 71t45.5 42.5t62.5 14q17 0 36.5 -8.5t30.5 -34.5l4 2l9 35h136l-96 -494h-135zM182 120q9 0 20 9t19 44l27 139q2 7 3 14t1 15q0 11 -5 19.5 t-20 8.5q-11 0 -18.5 -7t-9.5 -15q-3 -6 -9.5 -31.5t-13 -58t-11.5 -65t-5 -52.5q0 -18 22 -20z" unicode="а" horiz-adv-x="408"/>
<glyph glyph-name="afii10066" d="M229 343q-22 0 -31.5 -19.5t-20.5 -65.5q-3 -12 -6 -28t-6 -31.5t-4.5 -28.5t-1.5 -20q0 -12 4.5 -20t18.5 -8q11 0 19 7t10 15q3 6 9.5 29t13 51.5t11.5 55t5 40.5q0 10 -5.5 16.5t-15.5 6.5zM267 468q54 0 85.5 -31.5t31.5 -87.5v-7q0 -31 -5.5 -63t-10.5 -58 q-12 -61 -27.5 -104.5t-38.5 -71t-57 -40t-82 -12.5q-44 0 -71.5 13t-42.5 33t-20 43.5t-5 45.5q0 13 0.5 27t3 34t7.5 49.5t13 73.5q5 26 9.5 48t9.5 42t10 40.5t11 43.5q17 70 35.5 112.5t51 67t85.5 36t139 18.5l8 -116q-51 -7 -84 -13t-53.5 -16.5t-32 -29t-19.5 -50.5 q-2 -10 -5 -19t-6 -27q16 11 32.5 15t27.5 4z" unicode="б" horiz-adv-x="397"/>
<glyph glyph-name="afii10067" d="M242 383q-28 0 -39.5 -21.5t-16.5 -49.5l-23 -122q-3 -14 -3 -25q0 -16 8 -29.5t32 -13.5q26 0 36 18.5t12 36.5t-6.5 29.5t-31.5 11.5h-8l18 93h17q24 0 35 11t13 26q2 19 -10.5 27t-32.5 8zM341 270q30 -11 39.5 -37t9.5 -52q0 -30 -10 -63t-34 -60.5t-63 -45.5 t-97 -18q-56 0 -90 16.5t-50.5 44.5t-18 50.5t-1.5 31.5q0 29 6 60l22 117q7 37 20.5 71.5t36 60.5t56.5 41.5t82 15.5t78 -11.5t47.5 -29.5t24 -40t6.5 -42q0 -12 -3 -27t-10.5 -30.5t-20 -29t-30.5 -21.5v-2z" unicode="в" horiz-adv-x="416"/>
<glyph glyph-name="afii10068" d="M357 135q-17 -65 -62.5 -102.5t-119.5 -39.5q-42 0 -71 9.5t-47.5 26t-27 39.5t-8.5 49q0 49 15.5 81.5t41.5 54.5t61.5 36.5t75.5 27.5q23 8 30.5 18t7.5 21q0 8 -5 15t-18 7q-17 0 -28 -13.5t-13 -29.5l-121 24q8 31 21.5 57.5t34 46t49.5 30.5t67 11q77 0 112 -34.5 t37 -89.5q0 -41 -15 -70.5t-41 -51.5t-61 -38.5t-74 -29.5q-14 -5 -27.5 -13.5t-13.5 -30.5q0 -12 6.5 -20t20.5 -8q17 0 31.5 11t17.5 33z" unicode="г" horiz-adv-x="387"/>
<glyph glyph-name="afii10069" d="M222 347q-21 0 -32 -24t-24 -87q-2 -9 -4 -20t-3.5 -23t-3 -23t-1.5 -19q0 -12 4 -20t18 -8q12 0 20.5 9t14.5 23.5t10 33t8 38.5q7 32 11.5 58t4.5 39q0 10 -6.5 16.5t-16.5 6.5zM286 518q0 41 -22.5 54.5t-65.5 13.5q-8 0 -15 -0.5t-15 -1.5v118q23 4 43 5.5t37 1.5 q48 0 80.5 -12t52.5 -34.5t28.5 -53.5t8.5 -69q0 -17 -2 -42t-7 -62.5t-14 -88t-23 -118.5q-10 -48 -24 -91t-37 -75.5t-57.5 -51t-84.5 -18.5q-48 0 -78.5 13t-47 33t-22 43.5t-5.5 45.5q0 24 5.5 60t13.5 74t19 72.5t22 57.5q21 43 49.5 63.5t73.5 20.5q11 0 34 -4.5 t43 -19.5l3 1q3 19 5 38t2 27z" unicode="д" horiz-adv-x="400"/>
<glyph glyph-name="afii10070" d="M229 377q-19 0 -28.5 -18.5t-15.5 -52.5q37 0 51.5 12t14.5 38q0 8 -5.5 14.5t-16.5 6.5zM352 145q-8 -33 -21 -60.5t-33.5 -48t-50 -31.5t-71.5 -11q-45 0 -74.5 12.5t-46.5 34t-23.5 49.5t-6.5 58q0 26 3 52t8 50q8 45 20 90t33.5 81.5t55.5 59t87 22.5q72 0 112.5 -33 t40.5 -90q0 -50 -15.5 -84.5t-42 -56t-61.5 -31t-74 -9.5h-12.5t-13.5 1q-4 -14 -5.5 -29.5t-1.5 -23.5q1 -25 20 -25q14 0 22.5 8.5t14.5 29.5z" unicode="е" horiz-adv-x="394"/>
<glyph glyph-name="afii10072" d="M359 327q23 39 42.5 78.5t43.5 88.5h104l-48 -268h4q13 28 23 50t19.5 41.5t18.5 38.5t21 42q10 22 23.5 41t31.5 33.5t42.5 22.5t56.5 8q72 0 103.5 -35.5t31.5 -85.5q0 -19 -4 -40l-128 -15q2 11 2 19q0 12 -5.5 21t-16.5 9q-10 0 -15.5 -5.5t-10.5 -14.5 q-5 -8 -12 -36.5t-15 -70.5t-11.5 -67.5t-3.5 -37.5q2 -22 19 -22q11 0 22.5 10t15.5 35l125 -17q-14 -73 -57.5 -114.5t-115.5 -41.5q-37 0 -61 10t-38.5 26t-21.5 37t-8 43q-1 6 -0.5 20t1.5 23l-3 1q-25 -42 -42 -77t-39 -77h-105l53 270h-3q-16 -35 -29.5 -62.5 t-25.5 -49.5t-22.5 -40t-19.5 -34q-22 -37 -55.5 -63t-91.5 -26q-72 0 -103 36t-31 88q0 14 2 29l129 19q-2 -11 -2 -19q0 -11 5.5 -18.5t16.5 -7.5q10 0 15.5 5.5t10.5 14.5q5 8 12 36.5t15 70.5t11.5 67.5t3.5 37.5q-2 22 -19 22q-11 0 -22 -10t-15 -35l-126 17 q14 73 56 114.5t114 41.5q37 0 61.5 -10t39.5 -26t21.5 -37t8.5 -43q1 -8 -0.5 -24t-3.5 -36z" unicode="ж" horiz-adv-x="871"/>
<glyph glyph-name="afii10073" d="M302 252q20 -11 28.5 -28t8.5 -41q0 -50 -15.5 -86t-41.5 -58.5t-60.5 -33t-71.5 -10.5q-75 0 -111 34.5t-36 90.5v12l140 18q-1 -5 -1.5 -9t-0.5 -9q0 -29 23 -29q14 0 26.5 20t12.5 55q0 31 -23 31h-44l18 93h47q13 0 26 15t13 47q0 11 -5 19.5t-19 8.5 q-15 0 -26 -13.5t-16 -33.5l-125 22q9 30 22.5 55t35.5 43t53 27.5t73 9.5q65 0 104.5 -31.5t39.5 -92.5q0 -12 -2.5 -29.5t-11 -36t-23 -34.5t-38.5 -24v-2z" unicode="з" horiz-adv-x="374"/>
<glyph glyph-name="afii10074" d="M203 48q-17 -24 -45.5 -39t-51.5 -15q-36 0 -54.5 11.5t-24.5 28.5t-6 34q0 5 1 19t6 38l71 370h137l-65 -335q-3 -14 1.5 -25t18.5 -11q12 0 24.5 14t16.5 33l61 324h137l-96 -495h-137l11 47z" unicode="и" horiz-adv-x="413"/>
<glyph glyph-name="afii10075" d="M203 48q-17 -24 -45.5 -39t-51.5 -15q-36 0 -54.5 11.5t-24.5 28.5t-6 34q0 5 1 19t6 38l71 370h137l-65 -335q-3 -14 1.5 -25t18.5 -11q12 0 24.5 14t16.5 33l61 324h137l-96 -495h-137l11 47zM229 698q-1 -3 -1 -6.5v-6.5q0 -31 16 -47.5t39 -16.5q15 0 28 7.5t23 19 t17 25t10 25.5h107q-9 -30 -24 -59t-38 -51.5t-55 -36.5t-74 -14q-45 0 -74.5 14.5t-46 37.5t-21.5 47t-5 43q0 10 1 19h98z" unicode="й" horiz-adv-x="413"/>
<glyph glyph-name="afii10076" d="M1 0l96 494h133l-37 -188h11q9 0 16 2t14.5 9.5t15.5 21.5t17 39l45 117h129l-56 -144q-15 -37 -39 -61t-51 -32q29 -9 42 -35.5t14 -63.5l3 -159h-125l1 117q0 25 -2 40t-7 23t-13.5 10.5t-21.5 2.5h-15l-37 -193h-133z" unicode="к" horiz-adv-x="404"/>
<glyph glyph-name="afii10077" d="M233 373l-33 -171q-11 -57 -30 -96t-44 -64.5t-56 -39t-66 -19.5l-29 106q22 8 39.5 18.5t31 26t23 37t15.5 51.5l51 273h300l-96 -495h-132l72 373h-46z" unicode="л" horiz-adv-x="420"/>
<glyph glyph-name="afii10078" d="M347 202l-21 -37l-39 -71h-92l-13 80l-5 37h-3l-41 -211h-136l96 495h126l31 -172l13 -68h3l52 85l100 155h126l-96 -495h-138l40 202h-3z" unicode="м" horiz-adv-x="524"/>
<glyph glyph-name="afii10079" d="M197 0l38 199h-59l-38 -199h-138l96 495h138l-37 -191h59l37 191h137l-96 -495h-137z" unicode="н" horiz-adv-x="413"/>
<glyph glyph-name="afii10080" d="M236 376q-11 0 -18 -4t-12.5 -16t-11 -34t-12.5 -57l-14 -79q-2 -11 -3 -19.5t-1 -16.5q0 -12 4.5 -20t18.5 -8q11 0 19 7t10 15q2 4 6 18.5t8.5 35t9 43.5t8.5 45t6.5 40t2.5 27q0 10 -5.5 16.5t-15.5 6.5zM242 503q39 0 67.5 -11t47 -29.5t27 -42t8.5 -48.5 q0 -16 -1.5 -35.5t-4.5 -39.5l-6 -40t-6 -36q-12 -59 -26 -102t-36 -71t-54.5 -41.5t-80.5 -13.5q-41 0 -69.5 12.5t-46.5 32t-26 43.5t-8 47q0 27 3.5 56t9.5 61q5 24 10.5 49t11.5 48.5t13.5 44t15.5 34.5q23 41 62.5 61.5t88.5 20.5z" unicode="о" horiz-adv-x="401"/>
<glyph glyph-name="afii10081" d="M229 447q17 24 45.5 39t51.5 15q27 0 43.5 -6.5t25.5 -18t12 -26.5t3 -32q0 -11 -2 -23.5t-4 -24.5l-71 -370h-137l65 335q1 5 1 13q0 13 -6 18t-15 5q-17 0 -27 -14t-14 -33l-61 -324h-137l96 495h137l-11 -47z" unicode="п" horiz-adv-x="413"/>
<glyph glyph-name="afii10082" d="M185 123q10 0 18 6.5t12 16.5q3 9 7.5 26.5t8.5 38.5t8.5 44t7.5 42.5t5 33t2 16.5v3q0 8 -5.5 13.5t-15.5 5.5q-12 0 -19 -5t-12 -16.5t-9 -31t-10 -49.5l-2 -11q-7 -38 -12.5 -67t-5.5 -42q0 -11 5.5 -17.5t16.5 -6.5zM216 -8q-13 0 -37 6.5t-37 23.5h-5l-44 -215h-137 l134 688h135l-7 -36l4 -2q9 13 20.5 22t23.5 13.5t23.5 6.5t20.5 2q46 0 69 -22.5t23 -76.5q0 -8 -0.5 -16.5t-1.5 -18.5q-2 -15 -7 -52t-13 -80t-18 -85t-21 -67q-6 -14 -14.5 -29.5t-23 -29.5t-35.5 -23t-52 -9z" unicode="р" horiz-adv-x="410"/>
<glyph glyph-name="afii10083" d="M169 -6q-38 0 -64.5 10t-43.5 26t-25.5 37t-9.5 43q-1 8 -1 17q0 20 4 51t9 67q7 45 19 91.5t28 76.5q20 39 59.5 64.5t99.5 25.5q37 0 66.5 -10.5t48 -31t24 -43t5.5 -39.5t-4 -37l-136 -15q2 13 2 22t-3.5 18t-14.5 9q-17 0 -27 -20q-5 -8 -12.5 -36.5t-15.5 -70.5 t-11.5 -67.5t-3.5 -37.5q2 -22 20 -22q11 0 20.5 10t14.5 35l132 -17q-14 -73 -60 -114.5t-120 -41.5z" unicode="с" horiz-adv-x="381"/>
<glyph glyph-name="afii10084" d="M519 501q33 0 51.5 -10t27 -26.5t8.5 -37.5q0 -22 -6 -51l-73 -376h-137l65 335q4 20 -2.5 28t-17.5 8t-21.5 -8.5t-15.5 -25.5l-65 -337h-137l65 335q4 20 -2.5 28t-17.5 8q-12 0 -23 -10t-15 -29l-64 -332h-137l96 495h137l-8 -41l5 -1q16 18 42.5 33t49.5 15t38 -5 t24 -13t14 -19t7 -24q25 27 57 44t55 17z" unicode="т" horiz-adv-x="607"/>
<glyph glyph-name="afii10085" d="M179 189q29 66 53 139.5t50 165.5h144q-52 -150 -109 -281.5t-113 -234.5q-21 -39 -46.5 -73t-56.5 -58t-66.5 -36.5t-75.5 -12.5h-12l-2 118q46 4 75 24t58 71l-27 483h143l-5 -155q-1 -12 -2 -31.5t-3 -40.5t-4.5 -42t-5.5 -36h5z" unicode="у" horiz-adv-x="383"/>
<glyph glyph-name="afii10086" d="M251 372q-9 -1 -18 -5t-18.5 -14.5t-18 -30t-15.5 -51.5q-1 -5 -3 -15.5t-4 -22.5t-4 -23.5t-3 -17.5q-1 -7 -1 -14q0 -15 5.5 -32.5t30.5 -24.5zM329 121q24 3 36.5 14t17.5 30q4 14 8 29.5t11 50.5q7 33 10 59t3 39q0 10 -8 19t-29 10zM142 -190l35 183q-33 4 -59 16.5 t-44 29.5t-28 38.5t-12 43.5q-1 13 -1 28q0 42 10 96q9 45 20.5 84t25.5 65q11 19 27.5 37.5t39.5 33t52.5 23.5t66.5 11l39 197h127l-39 -197q39 -6 64.5 -18t42 -27.5t24.5 -33.5t10.5 -32t2.5 -28q0 -12 -2 -35t-7 -59.5t-13 -72t-15 -59.5q-11 -36 -31.5 -61.5 t-47.5 -42.5t-58.5 -26t-64.5 -10l-35 -184h-130z" unicode="ф" horiz-adv-x="567"/>
<glyph glyph-name="afii10087" d="M198 143l-76 -143h-159l169 252l-67 243h150l16 -135h4l67 135h159l-165 -243l75 -252h-150l-17 143h-6z" unicode="х" horiz-adv-x="405"/>
<glyph glyph-name="afii10088" d="M230 54q-17 -20 -34 -32t-32.5 -18t-28 -8t-21.5 -2q-36 0 -56 11.5t-28 30t-8 39.5q0 23 6 50l71 370h137l-65 -335q-3 -14 1.5 -25t18.5 -11q12 0 24.5 14t16.5 33l61 324h137l-57 -286q-6 -30 -6 -53q0 -20 7 -43t38 -35l-41 -198h-103l22 121q-18 5 -33.5 20 t-18.5 33h-8z" unicode="ц" horiz-adv-x="440"/>
<glyph glyph-name="afii10089" d="M213 192q-27 -11 -49 -15.5t-42 -4.5q-46 0 -63.5 24t-17.5 54q0 15 3 32l42 213h135l-36 -177q-1 -6 -1 -11q0 -21 21 -21q13 0 31 8l40 201h135l-97 -495h-135l37 191z" unicode="ч" horiz-adv-x="399"/>
<glyph glyph-name="afii10090" d="M113 -6q-34 0 -53.5 10t-28.5 27t-9 39.5t5 48.5l73 376h137l-65 -335q-4 -20 2.5 -28t17.5 -8t21.5 8.5t15.5 25.5l65 337h137l-65 -335q-4 -20 2.5 -28t17.5 -8q12 0 23 10t15 29l64 332h137l-96 -495h-137l8 41l-5 1q-16 -18 -40.5 -33t-47.5 -15q-43 0 -62.5 16.5 t-24.5 44.5q-25 -27 -54.5 -44t-52.5 -17z" unicode="ш" horiz-adv-x="608"/>
<glyph glyph-name="afii10091" d="M311 -6q-43 0 -64.5 16.5t-26.5 44.5q-25 -27 -54.5 -44t-52.5 -17q-34 0 -53.5 10t-28.5 27t-9 39.5t5 48.5l73 376h137l-65 -335q-4 -20 2.5 -28t17.5 -8t21.5 8.5t15.5 25.5l65 337h137l-65 -335q-4 -20 2.5 -28t17.5 -8q12 0 23 10t15 29l64 332h137l-55 -288 q-6 -31 -6 -54q0 -19 6.5 -41t37.5 -34l-41 -198h-103l22 117q-18 7 -34 21t-19 32h-8q-17 -20 -34 -31t-32 -16.5t-27 -7t-21 -1.5z" unicode="щ" horiz-adv-x="635"/>
<glyph glyph-name="afii10092" d="M240 175q-2 -9 -2 -17q0 -16 9 -26t28 -10q24 0 34.5 16.5t10.5 37.5q0 16 -9.5 29t-38.5 13h-24zM49 495h253l-33 -172h55q60 0 100.5 -36t40.5 -106q0 -30 -11 -63t-35.5 -60.5t-65 -45.5t-99.5 -18q-49 2 -81 18t-49.5 43.5t-19.5 51t-2 34.5q0 28 6 61l34 180h-113z " unicode="ъ" horiz-adv-x="485"/>
<glyph glyph-name="afii10093" d="M166 175q-2 -9 -2 -17q0 -16 9 -26t28 -10q24 0 34.5 16.5t10.5 37.5q0 16 -9.5 29t-38.5 13h-24zM88 495h140l-33 -172h55q60 0 100.5 -36t40.5 -106q0 -30 -11 -63t-35.5 -60.5t-65 -45.5t-99.5 -18q-49 2 -81 18t-49.5 43.5t-19.5 51t-2 34.5q0 28 6 61zM402 0l96 495 h138l-96 -495h-138z" unicode="ы" horiz-adv-x="626"/>
<glyph glyph-name="afii10094" d="M166 175q-2 -9 -2 -17q0 -16 9 -26t28 -10q24 0 34.5 16.5t10.5 37.5q0 16 -9.5 29t-38.5 13h-24zM88 495h140l-33 -172h55q60 0 100.5 -36t40.5 -106q0 -30 -11 -63t-35.5 -60.5t-65 -45.5t-99.5 -18q-49 2 -81 18t-49.5 43.5t-19.5 51t-2 34.5q0 28 6 61z" unicode="ь" horiz-adv-x="411"/>
<glyph glyph-name="afii10095" d="M152 159q-2 -20 2.5 -28.5t15.5 -8.5q12 0 19.5 7.5t12 19t7.5 25t5 24.5h-101l20 105h100q3 14 5 27.5t2 23.5t-4.5 16t-15.5 6q-22 0 -33 -38l-132 15q16 78 60 114t116 36q37 0 62 -8.5t41 -21.5t24.5 -29t11.5 -31q2 -13 2.5 -25t0.5 -17q0 -15 -1.5 -35t-5 -44.5 t-7.5 -46.5q-3 -18 -7.5 -38.5t-9.5 -40.5t-10 -38t-11 -30q-9 -20 -22.5 -39t-33.5 -33.5t-47.5 -23t-64.5 -8.5q-35 0 -62 11t-45 30.5t-25 44t-7 48.5v12z" unicode="э" horiz-adv-x="384"/>
<glyph glyph-name="afii10096" d="M426 374q-11 0 -17.5 -4t-12 -16t-10.5 -33.5t-12 -56.5l-15 -79q-2 -11 -3 -19.5t-1 -16.5q0 -12 4.5 -20t18.5 -8q11 0 18.5 7t9.5 15q2 4 6 18.5t8.5 35t9 43.5t8.5 45t6.5 40t2.5 27q0 22 -21 22zM432 501q39 0 66.5 -11t45.5 -29.5t26.5 -42t8.5 -47.5 q0 -16 -1.5 -35.5t-4.5 -39.5l-6 -40t-6 -36q-12 -61 -27 -104t-38 -70.5t-56 -40t-81 -12.5q-41 0 -68 12t-43 31.5t-22.5 43.5t-6.5 47q0 17 2.5 35t4.5 37h-49l-38 -199h-137l96 495h137l-37 -191h49q8 34 17 64.5t20 50.5q23 40 61.5 61t86.5 21z" unicode="ю" horiz-adv-x="589"/>
<glyph glyph-name="afii10097" d="M238 379q-20 0 -37 -11.5t-17 -37.5q0 -19 12.5 -25.5t33.5 -6.5h16l16 81h-24zM-14 0l54 150q9 24 21.5 44.5t39.5 31.5q-26 14 -36.5 40t-10.5 55q0 46 15.5 79t42 54t61 31t73.5 10h171l-93 -495h-135l36 190h-10q-10 0 -18 -3.5t-15.5 -12.5t-15.5 -25t-17 -41 l-35 -108h-128z" unicode="я" horiz-adv-x="394"/>
<glyph glyph-name="afii10071" d="M125 554l25 130h118l-25 -130h-118zM299 554l25 130h119l-25 -130h-119zM229 377q-19 0 -28.5 -18.5t-15.5 -52.5q37 0 51.5 12t14.5 38q0 8 -5.5 14.5t-16.5 6.5zM352 145q-8 -33 -21 -60.5t-33.5 -48t-50 -31.5t-71.5 -11q-45 0 -74.5 12.5t-46.5 34t-23.5 49.5 t-6.5 58q0 26 3 52t8 50q8 45 20 90t33.5 81.5t55.5 59t87 22.5q72 0 112.5 -33t40.5 -90q0 -50 -15.5 -84.5t-42 -56t-61.5 -31t-74 -9.5h-12.5t-13.5 1q-4 -14 -5.5 -29.5t-1.5 -23.5q1 -25 20 -25q14 0 22.5 8.5t14.5 29.5z" unicode="ё" horiz-adv-x="394"/>
<glyph glyph-name="afii10099" d="M309 495q44 0 64.5 -22.5t24.5 -50t4 -48.5q0 -19 -3.5 -52.5t-10.5 -78.5q-2 -14 -5.5 -33t-8 -39t-8.5 -38.5t-8 -30.5q-12 -39 -28.5 -65t-37 -41.5t-45 -22t-52.5 -6.5h-31l22 115q13 2 21 8t13.5 19t10 35t10.5 57l25 134q4 20 -4.5 28t-19.5 8q-12 0 -23 -10 t-15 -29l-65 -332h-137l108 558h-42l15 77h42l18 91h137l-18 -91h119l-15 -77h-119l-17 -91l5 -1q14 14 37 21.5t37 7.5z" unicode="ђ" horiz-adv-x="415"/>
<glyph glyph-name="afii10100" d="M357 135q-17 -65 -62.5 -102.5t-119.5 -39.5q-42 0 -71 9.5t-47.5 26t-27 39.5t-8.5 49q0 49 15.5 81.5t41.5 54.5t61.5 36.5t75.5 27.5q23 8 30.5 18t7.5 21q0 8 -5 15t-18 7q-17 0 -28 -13.5t-13 -29.5l-121 24q8 31 21.5 57.5t34 46t49.5 30.5t67 11q77 0 112 -34.5 t37 -89.5q0 -41 -15 -70.5t-41 -51.5t-61 -38.5t-74 -29.5q-14 -5 -27.5 -13.5t-13.5 -30.5q0 -12 6.5 -20t20.5 -8q17 0 31.5 11t17.5 33zM185 574l136 186l98 -54l-170 -175z" unicode="ѓ" horiz-adv-x="387"/>
<glyph glyph-name="afii10101" d="M352 141q-8 -34 -23 -61.5t-37.5 -46.5t-54 -29t-73.5 -10q-33 0 -57.5 10t-40.5 26t-25 37t-10 43q-1 8 -1 17q0 20 4 51t9 67q7 45 19 91.5t28 76.5q20 39 59.5 64.5t99.5 25.5q72 0 108 -35t36 -88q0 -13 -2 -28l-137 -17q1 8 1 15q0 26 -18 26q-17 0 -27 -20 q-3 -5 -7.5 -19.5t-9.5 -35.5h99l-19 -103h-100q-6 -39 -6 -54q2 -22 20 -22q10 0 19 8t14 27z" unicode="є" horiz-adv-x="384"/>
<glyph glyph-name="afii10102" d="M151 160q-1 -4 -1.5 -6.5t-0.5 -5.5q0 -14 8 -22t21 -8q20 0 30 15.5t10 31.5t-8 22.5t-19 10.5q-24 9 -48 17.5t-43 22t-31 34.5t-12 55q0 39 12.5 71t36 55.5t58 36.5t78.5 13q71 0 108.5 -32t37.5 -87q0 -16 -3 -32l-134 -14q1 3 1 7q0 13 -6 23t-20 10 q-12 0 -19 -5.5t-10.5 -12.5t-4.5 -13.5t-1 -8.5q0 -16 22 -23q30 -10 56 -20t44.5 -25t29 -37.5t10.5 -56.5q0 -35 -10 -68t-33 -58.5t-60 -40.5t-90 -15q-66 0 -106 30.5t-40 91.5q0 6 0.5 13t1.5 14z" unicode="ѕ" horiz-adv-x="387"/>
<glyph glyph-name="afii10103" d="M5 0l96 494h137l-96 -494h-137zM115 566l25 130h137l-25 -130h-137z" unicode="і" horiz-adv-x="237"/>
<glyph glyph-name="afii10104" d="M5 0l96 494h137l-96 -494h-137zM42 547l25 130h118l-25 -130h-118zM216 547l25 130h119l-25 -130h-119z" unicode="ї" horiz-adv-x="237"/>
<glyph glyph-name="afii10105" d="M136 -33q-17 -86 -65 -125t-124 -39q-10 0 -21.5 1t-21.5 3l24 128q5 -1 15 -1q34 0 45 18.5t18 51.5l96 491h137zM116 566l25 130h137l-25 -130h-137z" unicode="ј" horiz-adv-x="226"/>
<glyph glyph-name="afii10106" d="M380 175q-2 -9 -2 -17q0 -16 9 -26t28 -10q24 0 34.5 16.5t10.5 37.5q0 16 -9.5 29t-38.5 13h-24zM442 495l-33 -172h55q60 0 100.5 -36t40.5 -106q0 -30 -11 -63t-35.5 -60.5t-65 -45.5t-99.5 -18q-49 2 -81 18t-49.5 43.5t-19.5 51t-2 34.5q0 28 6 61l31 171h-46 l-33 -171q-11 -57 -30 -96t-44 -64.5t-56 -39t-66 -19.5l-29 106q22 8 39.5 18.5t31 26t23 37t15.5 51.5l51 273h307z" unicode="љ" horiz-adv-x="624"/>
<glyph glyph-name="afii10107" d="M369 175q-2 -9 -2 -17q0 -16 9 -26t28 -10q24 0 34.5 16.5t10.5 37.5q0 16 -9.5 29t-38.5 13h-24zM240 218h-59l-41 -218h-138l96 495h138l-32 -172h55l32 172h140l-33 -172h55q60 0 100.5 -36t40.5 -106q0 -30 -11 -63t-35.5 -60.5t-65 -45.5t-99.5 -18q-49 2 -81 18 t-49.5 43.5t-19.5 51t-2 34.5q0 28 6 61z" unicode="њ" horiz-adv-x="615"/>
<glyph glyph-name="afii10108" d="M228 447q17 24 45.5 39t51.5 15q36 0 54.5 -11.5t24.5 -28t6 -32.5q0 -6 -1.5 -20.5t-5.5 -38.5l-71 -370h-137l65 335q3 14 -1.5 25t-18.5 11q-17 0 -27 -14t-14 -33l-61 -324h-137l108 558h-45l14 77h46l18 91h137l-19 -91h104l-15 -77h-104l-22 -110z" unicode="ћ" horiz-adv-x="413"/>
<glyph glyph-name="afii10109" d="M1 0l96 494h133l-37 -188h11q9 0 16 2t14.5 9.5t15.5 21.5t17 39l45 117h129l-56 -144q-15 -37 -39 -61t-51 -32q29 -9 42 -35.5t14 -63.5l3 -159h-125l1 117q0 25 -2 40t-7 23t-13.5 10.5t-21.5 2.5h-15l-37 -193h-133zM199 574l136 186l98 -54l-170 -175z" unicode="ќ" horiz-adv-x="404"/>
<glyph glyph-name="afii10110" d="M212 700q-1 -3 -1 -6.5v-6.5q0 -31 16 -47.5t39 -16.5q15 0 28 7.5t23 19t17 25t10 25.5h107q-9 -30 -24 -59t-38 -51.5t-55 -36.5t-74 -14q-45 0 -74.5 14.5t-46 37.5t-21.5 47t-5 43q0 10 1 19h98zM179 189q29 66 53 139.5t50 165.5h144q-52 -150 -109 -281.5 t-113 -234.5q-21 -39 -46.5 -73t-56.5 -58t-66.5 -36.5t-75.5 -12.5h-12l-2 118q46 4 75 24t58 71l-27 483h143l-5 -155q-1 -12 -2 -31.5t-3 -40.5t-4.5 -42t-5.5 -36h5z" unicode="ў" horiz-adv-x="383"/>
<glyph glyph-name="afii10193" d="M203 48q-17 -24 -45.5 -39t-51.5 -15q-36 0 -54.5 11.5t-24.5 28.5t-6 34q0 5 1 19t6 38l71 370h137l-65 -335q-3 -14 1.5 -25t18.5 -11q12 0 24.5 14t16.5 33l61 324h137l-96 -495h-137l11 47zM228 -23l-52 -166h-97l38 151z" unicode="џ" horiz-adv-x="413"/>
<glyph glyph-name="afii10050" d="M481 802l-45 -236h-180l-110 -566h-133l135 696h209l20 106h104z" unicode="Ґ" horiz-adv-x="394"/>
<glyph glyph-name="afii10098" d="M135 0h-134l96 495h193l22 114h102l-46 -236h-161z" unicode="ґ" horiz-adv-x="355"/>
<glyph glyph-name="schwacyrillic" d="M181 121q19 0 28.5 18.5t15.5 52.5q-37 0 -51.5 -12t-14.5 -38q0 -8 5.5 -14.5t16.5 -6.5zM58 353q8 33 21 60.5t33.5 48t50 31.5t71.5 11q45 0 74 -12.5t45.5 -34t23 -49.5t6.5 -58q0 -26 -2 -52t-7 -50q-8 -45 -20 -90t-33.5 -81.5t-56 -59t-86.5 -22.5 q-72 0 -112.5 33t-40.5 90q0 50 15.5 84.5t42 56t61.5 31t74 9.5h12.5t13.5 -1q4 14 5.5 29.5t1.5 23.5q0 25 -20 25q-14 0 -22.5 -8.5t-14.5 -29.5z" unicode="ә" horiz-adv-x="408"/>
</font>
</defs>
</svg>
